<svg xmlns="http://www.w3.org/2000/svg" width="86" height="86" viewBox="0 0 86 86">
    <rect width="86" height="86" fill="#4064ac" rx="15"/>
    <g>
        <path fill="#fff" d="M260.425 369.323h-6.662v23.862h-9.938v-23.862h-4.7v-8.409h4.7v-5.46a11.817 11.817 0 0 1 .764-4.314 8.381 8.381 0 0 1 3-3.986 10.485 10.485 0 0 1 6.225-1.747l7.371.055v8.19h-5.351a2.117 2.117 0 0 0-1.365.437 2.3 2.3 0 0 0-.71 1.857v4.969h7.541z" transform="translate(32.257 19) translate(-239.13 -345.407)"/>
    </g>
</svg>
