<svg id="IG" xmlns="http://www.w3.org/2000/svg" xmlns:xlink="http://www.w3.org/1999/xlink" width="86" height="86" viewBox="0 0 86 86">
  <defs>
    <linearGradient id="linear-gradient" x1="0.5" x2="0.5" y2="1" gradientUnits="objectBoundingBox">
      <stop offset="0" stop-color="#515ad1"/>
      <stop offset="0.341" stop-color="#c72b91"/>
      <stop offset="0.703" stop-color="#d82c7e"/>
      <stop offset="1" stop-color="#f7ad60"/>
    </linearGradient>
  </defs>
  <g id="Group_269" data-name="Group 269">
    <rect id="Rectangle_89" data-name="Rectangle 89" width="86" height="86" rx="15" fill="url(#linear-gradient)"/>
    <path id="IG-2" data-name="IG" d="M6657.365,6190h-19.416A15.969,15.969,0,0,0,6622,6205.991v19.394a15.969,15.969,0,0,0,15.948,15.932h19.416a15.973,15.973,0,0,0,15.953-15.932v-19.394A15.972,15.972,0,0,0,6657.365,6190Zm5.84,12.122a1.964,1.964,0,0,0-3.929,0,1.964,1.964,0,0,0,3.929,0Zm-15.547.868a12.7,12.7,0,1,0,0,25.4,12.484,12.484,0,0,0,8.958-3.751,12.607,12.607,0,0,0,0-17.957A12.433,12.433,0,0,0,6647.658,6202.989Zm0,21.012a8.346,8.346,0,0,1-5.892-2.481,8.321,8.321,0,1,1,11.788,0A8.368,8.368,0,0,1,6647.658,6224Zm21.267,1.384a11.27,11.27,0,0,1-3.409,8.139,11.546,11.546,0,0,1-8.15,3.405h-19.416a11.781,11.781,0,0,1-8.2-3.405,11.452,11.452,0,0,1-3.353-8.139v-19.394a11.487,11.487,0,0,1,3.353-8.2,11.756,11.756,0,0,1,8.2-3.408h19.416a11.522,11.522,0,0,1,8.15,3.408,11.305,11.305,0,0,1,3.409,8.2Z" transform="translate(-6605.62 -6172.254)" fill="#fff" fill-rule="evenodd"/>
  </g>
</svg>
