<?xml version="1.0" encoding="utf-8"?>
<!-- Generator: Adobe Illustrator 22.1.0, SVG Export Plug-In . SVG Version: 6.00 Build 0)  -->
<svg version="1.1" id="Capa_1" xmlns="http://www.w3.org/2000/svg" xmlns:xlink="http://www.w3.org/1999/xlink" x="0px" y="0px"
	 viewBox="0 0 296.5 296.5" style="enable-background:new 0 0 296.5 296.5;" xml:space="preserve">
<style type="text/css">
	.st0{fill:#FFFFFF;}
</style>
<path class="st0" d="M201.2,5.2H93.9C43.8,5.2,5.2,45.2,5.2,93.9v108.8c0,48.7,40.1,88.7,88.7,88.7h108.8
	c48.7,0,88.7-40.1,88.7-88.7V93.9C291.4,45.2,251.3,5.2,201.2,5.2z M234.1,72.4c0-5.7-5.7-11.4-11.4-10c-5.7,0-10,4.3-10,10
	s5.7,11.4,11.4,10C229.8,82.4,234.1,78.1,234.1,72.4z M148.3,78.1c-38.6,0-71.6,31.5-71.6,70.1s31.5,71.6,71.6,71.6l0,0
	c18.6,0,37.2-7.2,50.1-21.5c27.2-27.2,28.6-71.6,1.4-98.7c0,0,0,0-1.4-1.4C184,85.3,166.9,78.1,148.3,78.1z M148.3,195.5
	c-12.9,0-24.3-5.7-32.9-14.3c-18.6-18.6-18.6-47.2,0-65.8s47.2-18.6,65.8,0s18.6,47.2,0,65.8C172.6,189.8,159.7,194.1,148.3,195.5
	L148.3,195.5z M267,202.6c0,17.2-7.2,32.9-18.6,45.8C237,259.9,219.8,267,202.6,267H93.9c-17.2,0-32.9-7.2-45.8-18.6
	c-11.4-11.4-18.6-28.6-18.6-45.8V93.9c0-17.2,5.7-32.9,18.6-45.8C61,36.6,76.7,29.5,93.9,29.5h108.8c15.7,0,32.9,7.2,44.4,18.6
	c12.9,11.4,18.6,28.6,18.6,45.8L267,202.6z"/>
</svg>
