<svg xmlns="http://www.w3.org/2000/svg" width="20" height="20" viewBox="0 0 20 20">
    <path fill-rule="evenodd" d="M6635.784 6190h-7.567a6.225 6.225 0 0 0-6.216 6.232v7.559a6.223 6.223 0 0 0 6.216 6.209h7.567a6.223 6.223 0 0 0 6.217-6.209v-7.559a6.225 6.225 0 0 0-6.217-6.232zm2.275 4.725a.766.766 0 0 0-1.531 0 .766.766 0 0 0 1.531 0zm-6.059.338a4.949 4.949 0 1 0 0 9.9 4.867 4.867 0 0 0 3.491-1.462 4.914 4.914 0 0 0 0-7 4.847 4.847 0 0 0-3.491-1.438zm0 8.188a3.255 3.255 0 0 1-2.3-.967 3.243 3.243 0 1 1 4.595 0 3.26 3.26 0 0 1-2.295.967zm8.288.54a4.393 4.393 0 0 1-1.329 3.172 4.5 4.5 0 0 1-3.176 1.327h-7.567a4.592 4.592 0 0 1-3.2-1.327 4.465 4.465 0 0 1-1.307-3.172v-7.559a4.477 4.477 0 0 1 1.307-3.194 4.584 4.584 0 0 1 3.2-1.328h7.567a4.491 4.491 0 0 1 3.176 1.328 4.405 4.405 0 0 1 1.329 3.194z" transform="translate(-6622.001 -6190)"/>
</svg>
