<?xml version="1.0" encoding="utf-8"?>
<!-- Generator: Adobe Illustrator 22.1.0, SVG Export Plug-In . SVG Version: 6.00 Build 0)  -->
<svg version="1.1" id="圖層_1" xmlns="http://www.w3.org/2000/svg" xmlns:xlink="http://www.w3.org/1999/xlink" x="0px" y="0px"
	 viewBox="0 0 21 20" style="enable-background:new 0 0 21 20;" xml:space="preserve">
<style type="text/css">
	.st0{fill:#FFFFFF;}
</style>
<path class="st0" d="M10.6,0.3c3.1-0.1,6.1,1.2,8.2,3.5c0.8,0.8,1.3,1.8,1.7,2.9c0.3,1,0.4,2.1,0.1,3.2c-0.2,1.1-0.7,2.2-1.5,3
	c-1.1,1.4-2.4,2.6-3.9,3.7c-1.4,1.1-3,2-4.6,2.9c-0.1,0.1-0.3,0.1-0.4,0.2c-0.1,0-0.3,0-0.4,0c-0.1-0.1-0.2-0.2-0.2-0.3
	c0-0.1,0-0.2,0-0.3c0.1-0.3,0.1-0.4,0.1-0.4c0.1-0.4,0.1-0.7,0.1-1.1c0-0.2-0.2-0.5-0.4-0.6c-0.3-0.2-0.7-0.3-1.1-0.3
	c-2-0.3-3.9-1.2-5.4-2.5c-1.1-0.9-1.9-2.2-2.4-3.5C0.2,9.4,0.2,8,0.6,6.7C1,5.3,1.8,4.1,2.9,3.1c1-1,2.2-1.7,3.6-2.2
	C7.8,0.5,9.2,0.3,10.6,0.3L10.6,0.3z M3.9,8.7v1.8c0,0.5,0.2,0.8,0.6,0.8c0.6,0,1.3,0,1.9,0C6.8,11.2,7,11,7,10.7c0,0,0,0,0,0
	c0-0.3-0.2-0.5-0.6-0.5c-0.2,0-0.4,0-0.6,0c-0.4,0.1-0.6,0-0.7-0.1C5,9.8,5,9.5,5,9.2c0-0.3,0-0.7,0-1.1l0-1.1C5,6.9,5,6.7,5,6.5
	C4.8,6.2,4.4,6.1,4.2,6.3C4.1,6.4,4,6.4,4,6.5C3.9,6.7,3.9,6.8,3.9,7L3.9,8.7L3.9,8.7z M7.5,8.6c0,1.2,0,1.9,0,2
	c0,0.2,0,0.3,0.2,0.5c0.1,0.1,0.3,0.2,0.4,0.2c0.2,0,0.3-0.1,0.4-0.2c0.1-0.1,0.1-0.3,0.1-0.5l0-3.7c0-0.2,0-0.3-0.1-0.5
	C8.4,6.3,8.2,6.2,8.1,6.2c-0.3,0-0.5,0.2-0.5,0.6L7.5,8.6z M12.4,8.8C12.4,8.8,12.4,8.8,12.4,8.8l-0.2,0.1l-1.8-2.3
	C10.3,6.3,10,6.2,9.8,6.2C9.5,6.3,9.4,6.5,9.4,6.9c0,1.1,0,2.3,0,3.6c0,0.5,0.2,0.7,0.6,0.7c0.4,0,0.5-0.3,0.5-0.7V8.6
	c0.4,0.3,0.7,0.7,1.1,1.1c0.2,0.3,0.5,0.6,0.9,1.1c0.1,0.1,0.2,0.2,0.3,0.3c0.1,0.1,0.3,0.1,0.4,0c0.2-0.1,0.4-0.3,0.4-0.7V6.9
	c0-0.5-0.2-0.7-0.5-0.7c-0.2,0-0.3,0.1-0.4,0.3c-0.1,0.2-0.1,0.3-0.1,0.5L12.4,8.8L12.4,8.8z M14.2,8.7v1.8c0,0.5,0.2,0.7,0.6,0.7
	c0.7,0,1.4,0,2,0c0.1,0,0.3-0.1,0.4-0.2c0.1-0.1,0.1-0.2,0.1-0.4c0-0.1-0.1-0.2-0.2-0.3c-0.1-0.1-0.2-0.1-0.3-0.1
	c-0.3,0-0.7-0.1-1,0c-0.1,0-0.3,0-0.4-0.1c-0.1-0.1-0.1-0.2-0.1-0.4c0-0.1,0-0.3,0.1-0.3c0.1-0.1,0.2-0.1,0.4-0.1c0.5,0,0.8,0,0.9,0
	c0.4,0,0.6-0.2,0.6-0.6c0-0.3-0.2-0.5-0.6-0.5c-0.1,0-0.2,0-0.4,0H16c0.1,0,0,0-0.2,0c-0.1,0-0.2,0-0.3,0c-0.1,0-0.1-0.1-0.2-0.1
	c0-0.1-0.1-0.2-0.1-0.3c0-0.1,0-0.2,0.1-0.3c0.1-0.1,0.2-0.1,0.3-0.1h1c0.4,0,0.6-0.2,0.6-0.6c0-0.1,0-0.3-0.2-0.4
	c-0.1-0.1-0.3-0.1-0.4-0.2c-0.5-0.1-1-0.2-1.6-0.1c-0.3,0.1-0.6,0.3-0.7,0.6c-0.2,0.5-0.2,1-0.2,1.5L14.2,8.7L14.2,8.7z"/>
</svg>
