<?xml version="1.0" encoding="utf-8"?>
<!-- Generator: Adobe Illustrator 22.1.0, SVG Export Plug-In . SVG Version: 6.00 Build 0)  -->
<svg version="1.1" id="圖層_1" xmlns="http://www.w3.org/2000/svg" xmlns:xlink="http://www.w3.org/1999/xlink" x="0px" y="0px"
	 viewBox="0 0 50 50" style="enable-background:new 0 0 50 50;" xml:space="preserve">
<style type="text/css">
	.st0{fill:#1A1311;}
</style>
<path class="st0" d="M44.7,10.2c-5-5.5-12.2-8.6-19.6-8.4c-3.3,0-6.7,0.5-9.8,1.4C12,4.5,9.2,6.1,6.8,8.5c-2.6,2.4-4.5,5.3-5.5,8.6
	c-1,3.1-1,6.4-0.2,9.6c1.2,3.1,3.1,6.2,5.7,8.4c3.6,3.1,8.1,5.3,12.9,6c1,0,1.9,0.2,2.6,0.7c0.5,0.2,1,1,1,1.4c0,1,0,1.7-0.2,2.6
	c0,0,0,0.2-0.2,1c0,0.2,0,0.5,0,0.7s0.2,0.5,0.5,0.7c0.2,0,0.7,0,1,0c0.2-0.2,0.7-0.2,1-0.5c3.8-2.1,7.6-4.3,11-6.9
	c3.6-2.6,6.7-5.5,9.3-8.8c1.9-1.9,3.1-4.5,3.6-7.2c0.7-2.6,0.5-5.3-0.2-7.6C47.8,14.5,46.6,12.1,44.7,10.2z M14.2,28.6h-5
	c-0.7,0-1.4-0.6-1.4-1.4V16.9c0-0.7,0.6-1.4,1.4-1.4c0.7,0,1.4,0.6,1.4,1.4V26h3.6c0.7,0,1.4,0.6,1.4,1.4
	C15.5,28,14.9,28.6,14.2,28.6z M19.3,27.3c0,0.7-0.6,1.4-1.4,1.4c-0.7,0-1.4-0.6-1.4-1.4V16.8c0-0.7,0.6-1.4,1.4-1.4
	c0.7,0,1.4,0.6,1.4,1.4V27.3z M31.6,27.3c0,0.6-0.4,1.1-0.9,1.3c-0.1,0-0.3,0.1-0.4,0.1c-0.4,0-0.8-0.2-1.1-0.6l-4.9-6.7v5.9
	c0,0.7-0.6,1.4-1.4,1.4c-0.7,0-1.4-0.6-1.4-1.4V17.1c0-0.6,0.4-1.1,0.9-1.3c0.6-0.2,1.2,0,1.5,0.5l4.9,6.7v-6.2
	c0-0.7,0.6-1.4,1.4-1.4c0.7,0,1.4,0.6,1.4,1.4V27.3z M41.5,28.4h-6.7c-0.7,0-1.4-0.6-1.4-1.4v-5.2v-5.2c0-0.7,0.6-1.4,1.4-1.4h6.5
	c0.7,0,1.4,0.6,1.4,1.4c0,0.7-0.6,1.4-1.4,1.4h-5.1v2.5h4.2c0.7,0,1.4,0.6,1.4,1.4c0,0.7-0.6,1.4-1.4,1.4h-4.2v2.5h5.4
	c0.7,0,1.4,0.6,1.4,1.4C42.8,27.8,42.2,28.4,41.5,28.4z"/>
</svg>
