<svg id="LINE" xmlns="http://www.w3.org/2000/svg" width="86" height="86" viewBox="0 0 86 86">
  <g id="Group_270" data-name="Group 270">
    <rect id="Rectangle_90" data-name="Rectangle 90" width="86" height="86" rx="15" fill="#22ba4f"/>
    <path id="LINE-2" data-name="LINE" d="M477.49,563.108q16.006.426,25.226,10.719a23.124,23.124,0,0,1,5.074,8.933,19.924,19.924,0,0,1,.393,9.826,21.414,21.414,0,0,1-4.538,9.254,63.973,63.973,0,0,1-11.862,11.291,113.1,113.1,0,0,1-13.935,8.79,8.431,8.431,0,0,1-1.36.57,1.409,1.409,0,0,1-1.249-.143,1.385,1.385,0,0,1-.643-.822,2.164,2.164,0,0,1,.038-1.034c.188-.858.284-1.217.284-1.074a16.792,16.792,0,0,0,.357-3.43,2.056,2.056,0,0,0-1.143-1.715,12.188,12.188,0,0,0-3.216-1q-10.293-2.147-16.579-7.646a23.462,23.462,0,0,1-7.289-10.791,20.625,20.625,0,0,1-.143-12.006,23.68,23.68,0,0,1,7-11,30.952,30.952,0,0,1,10.934-6.576A40.283,40.283,0,0,1,477.49,563.108Zm-20.3,25.8v5.431q0,2.289,1.929,2.358a48.925,48.925,0,0,0,5.931-.072,1.589,1.589,0,0,0,1.644-1.644q0-1.286-1.715-1.572a7.268,7.268,0,0,0-1.715-.072q-1.645.284-2.251-.429a3.327,3.327,0,0,1-.466-2.43q.07-1.356.072-3.287-.07-3.358-.072-3.287a5.149,5.149,0,0,0-.213-1.787,1.718,1.718,0,0,0-2.932,0,4.535,4.535,0,0,0-.214,1.644v5.145Zm10.934-.359q0,5.574.071,6a2.3,2.3,0,0,0,.465,1.5,1.476,1.476,0,0,0,1.288.536,1.453,1.453,0,0,0,1.215-.607,2.469,2.469,0,0,0,.393-1.429l-.072-11.362a2.289,2.289,0,0,0-.393-1.392,1.446,1.446,0,0,0-1.251-.538q-1.573,0-1.644,1.929Zm15.008.645a.806.806,0,0,1-.214.143l-.286.143-5.431-7.146a2.092,2.092,0,0,0-2.18-1q-1.179.287-1.179,2-.072,4.931-.071,11.076.069,2.216,1.715,2.18t1.644-2.251v-5.788a32.906,32.906,0,0,1,3.216,3.43q.93,1.147,2.717,3.5a4.266,4.266,0,0,0,.929.929,1.371,1.371,0,0,0,1.217.143c.761-.238,1.143-.931,1.143-2.072V583.4q0-2.214-1.644-2.144a1.445,1.445,0,0,0-1.286.786,2.852,2.852,0,0,0-.286,1.5v5.645Zm5.431-.431v5.645q0,2.144,1.715,2.215a45.192,45.192,0,0,0,6.215,0,1.727,1.727,0,0,0,1.145-.536A1.4,1.4,0,0,0,498,594.94a1.559,1.559,0,0,0-.464-1.036,1.779,1.779,0,0,0-1.036-.427,26.52,26.52,0,0,0-3.144-.143,1.677,1.677,0,0,1-1.143-.323,1.426,1.426,0,0,1-.357-1.106,1.2,1.2,0,0,1,.357-1.036,1.861,1.861,0,0,1,1.072-.252q2.144,0,2.858-.071Q498,590.4,498,588.83c0-.856-.57-1.379-1.715-1.572a7.383,7.383,0,0,0-1.144-.071H494c.286.048.046.048-.715,0a2.276,2.276,0,0,1-.784-.107.919.919,0,0,1-.466-.395,1.821,1.821,0,0,1-.179-.929,1.454,1.454,0,0,1,.393-1.036,1.425,1.425,0,0,1,.893-.25h3q1.857-.215,1.858-1.715a1.274,1.274,0,0,0-.464-1.074,2.873,2.873,0,0,0-1.251-.5,12.448,12.448,0,0,0-4.788-.394,2.956,2.956,0,0,0-2.287,1.824,12.818,12.818,0,0,0-.641,4.716v1.433Z" transform="translate(-434.082 -550.108)" fill="#fff"/>
  </g>
</svg>
