<svg xmlns="http://www.w3.org/2000/svg" id="LOGO" width="120" height="112.3" viewBox="0 0 120 112.3">
    <defs>
        <style>
            .cls-2{fill:#1a1311}
        </style>
    </defs>
    <g id="Group_1">
        <path id="Path_1" fill="#a70719" d="M181.811 279.637c.231 0 .472.175.706.175s.466-.026.707-.019.471-.007.709-.007.466.094.7.109.466.019.708.044.467-.012.7 0 .456.165.7.2c.236.009.485-.144.711-.112s.465.109.7.121c.238.044.477 0 .711.032s.437.226.669.261.458.11.7.159.47 0 .7.049.45.138.677.193.446.186.673.244.506-.094.734-.031.413.267.632.343.441.174.672.245.484.016.7.081c.23.07.467.115.688.184s.449.148.671.216.4.274.628.362.451.106.678.193.448.113.675.2.455.142.668.233.424.209.637.314c.216.083.4.262.608.352s.419.219.632.313.428.191.644.3.387.261.6.371.433.2.636.315.518.027.731.137.313.4.52.5.483.113.68.235.345.351.543.464.458.159.654.285.369.306.563.436.39.258.59.391.323.349.528.479c.183.134.344.311.535.445s.477.149.668.286.361.307.536.45.279.421.457.569.438.208.615.362.426.229.607.371c.178.164.294.387.469.539s.392.262.573.424.321.336.5.512c.17.158.319.334.5.5.161.165.352.307.512.481.167.157.364.3.528.468s.164.492.324.668.319.336.477.516.332.339.48.516.477.205.626.387.233.42.382.609.207.437.355.619.408.271.554.462.215.419.359.615.223.4.37.587.315.362.453.556.326.346.46.535.178.448.3.641c.131.211.383.319.5.512s.083.5.208.713.212.406.341.608.288.368.409.583.368.334.482.535.018.518.126.726.421.325.527.53.207.424.306.633.109.477.213.682a3.343 3.343 0 0 1 .689-.083c.348 0 .257.209.685.209.2 0 .427-.217.69-.217.215 0 .442.005.689.005.226 0 .449.034.692.034.217 0 .455.053.687.053s.456.025.689.025.456.014.687.014.463-.1.689-.1.458.2.686.2.458-.167.7-.167.457-.085.682-.085.463.052.7.052.463.188.693.188.458-.217.675-.217c.251 0 .484.067.695.067.258 0 .5.049.686.049.435 0 .435.2.64-.07-.08-.215-.017-.444-.1-.653s-.166-.44-.256-.654-.35-.368-.44-.585-.166-.429-.257-.659l-.26-.65c-.086-.215-.157-.444-.264-.656-.087-.219-.06-.487-.154-.694s-.293-.387-.387-.6-.258-.406-.357-.611-.114-.465-.221-.67-.3-.38-.407-.577c-.112-.214-.238-.4-.341-.622-.125-.209-.1-.483-.214-.7-.112-.194-.166-.427-.288-.641s-.263-.389-.372-.592c-.128-.2-.34-.35-.466-.548s-.3-.367-.428-.57-.131-.456-.258-.66-.376-.327-.5-.509c-.128-.2-.244-.41-.378-.607s-.205-.417-.343-.619-.237-.4-.362-.6a6.571 6.571 0 0 1-.377-.6c-.136-.18-.358-.323-.5-.5-.136-.2-.248-.4-.4-.592s-.335-.33-.477-.525c-.143-.174-.18-.456-.322-.634s-.41-.273-.567-.45-.354-.309-.5-.493-.224-.422-.383-.6-.262-.389-.423-.576-.345-.318-.5-.5-.238-.408-.4-.587-.346-.323-.506-.484-.328-.339-.495-.5-.432-.228-.6-.406c-.159-.152-.2-.452-.366-.62s-.369-.3-.551-.459c-.155-.165-.471-.184-.639-.344s-.346-.3-.53-.469c-.171-.143-.3-.358-.477-.511s-.282-.389-.456-.549-.413-.243-.6-.4-.331-.328-.51-.474c-.179-.162-.418-.235-.609-.381s-.351-.306-.53-.449-.3-.392-.484-.53-.452-.182-.636-.33c-.2-.136-.343-.337-.533-.472s-.379-.286-.57-.419-.442-.173-.642-.311-.365-.309-.555-.441c-.2-.113-.4-.244-.591-.375s-.468-.132-.668-.258-.337-.347-.542-.469-.453-.162-.653-.284-.348-.329-.551-.444-.474-.122-.682-.228-.327-.392-.529-.5-.521-.014-.733-.129-.384-.288-.589-.391-.355-.358-.558-.457-.487-.066-.7-.173-.445-.165-.655-.264-.363-.349-.568-.436c-.222-.1-.467-.115-.679-.224-.218-.083-.421-.221-.631-.306s-.494-.052-.707-.132-.456-.128-.681-.212-.4-.267-.618-.338-.437-.183-.663-.263-.424-.2-.647-.279-.5.009-.724-.067c-.212-.07-.4-.268-.619-.346-.234-.072-.441-.169-.671-.242s-.455-.1-.689-.156c-.228-.075-.469-.075-.7-.131s-.418-.228-.647-.3-.48-.03-.712-.071c-.221-.07-.469-.042-.7-.1s-.429-.245-.654-.284a5.653 5.653 0 0 0-.694-.161c-.227-.052-.455-.125-.685-.171s-.508.129-.735.1c-.231-.051-.434-.229-.671-.263s-.488.09-.718.054-.44-.249-.677-.277-.473-.024-.7-.059-.456-.164-.693-.18c-.232-.039-.477.08-.714.062s-.47.017-.706 0-.451-.256-.689-.274-.484.2-.709.173a6.64 6.64 0 0 1-.706-.025c-.237-.009-.475-.071-.7-.087s-.466-.011-.707-.021-.473.065-.7.065-.475-.072-.706-.072-.465.06-.7.072-.476-.15-.708-.15c-.237.016-.465.162-.7.177-.223 0-.471-.115-.7-.1s-.482-.087-.706-.074c-.241 0-.464.162-.706.184s-.467 0-.7.033c-.234.01-.462.1-.7.118s-.476-.046-.715-.017-.465.04-.694.071-.463.115-.7.146-.456.094-.692.127-.47.059-.7.094-.476-.01-.705.025-.453.148-.684.2-.457.117-.689.165-.469.071-.694.115-.436.2-.662.255-.505-.078-.732-.023-.406.31-.633.369-.5-.059-.732 0-.419.233-.647.3-.428.208-.655.277-.481.047-.7.112-.422.242-.641.309-.5 0-.724.074-.441.159-.658.232-.416.226-.638.311-.491.032-.715.11-.388.3-.611.379-.41.232-.631.323-.47.069-.7.152c-.205.109-.449.143-.654.244-.229.087-.378.311-.583.417-.226.1-.477.1-.693.205s-.449.166-.653.26-.363.323-.576.429-.441.168-.652.271-.4.242-.612.357-.463.122-.673.237-.352.343-.55.458-.4.24-.606.362-.451.159-.65.281-.44.195-.64.313-.4.229-.6.375c-.2.118-.371.285-.567.424-.2.118-.378.283-.571.413s-.385.267-.575.389c-.19.152-.309.394-.5.525s-.409.24-.6.374-.394.267-.577.394-.464.168-.658.314a6.063 6.063 0 0 0-.568.421c-.187.13-.219.463-.4.619s-.5.13-.682.276-.341.334-.525.483-.308.351-.488.518c-.178.145-.3.348-.481.5s-.388.266-.575.421c-.164.163-.363.3-.532.471-.172.151-.366.272-.541.449-.166.16-.3.362-.457.53-.177.162-.271.412-.433.575s-.4.258-.562.438-.245.4-.406.577-.311.35-.47.518-.467.219-.627.385-.221.436-.374.615-.358.306-.513.486-.235.406-.394.594c-.141.185-.293.371-.433.553s-.255.4-.4.58-.371.3-.514.489-.283.387-.422.566-.193.442-.334.631-.338.33-.476.516c-.138.2-.173.471-.311.655s-.389.3-.525.493-.149.46-.274.662-.256.392-.386.59-.394.3-.52.5-.2.424-.318.629-.193.438-.314.64-.237.4-.358.608-.217.417-.332.611-.231.413-.345.619-.335.357-.445.562-.213.41-.319.626-.037.507-.138.721-.375.336-.477.544-.2.436-.291.651-.1.466-.2.675-.27.408-.357.619-.038.488-.128.707-.311.385-.4.6-.237.422-.322.64-.1.464-.182.688-.13.473-.217.692c.334.113.356-.087.7-.087a6.2 6.2 0 0 1 .7-.045c.339 0 .339-.007.685-.007s.347.177.685.177h.693c.342 0 .342-.154.684-.154s.346.117.685.117.345-.139.693-.139.342.139.691.139.346.038.685.038.346-.186.689-.186.343.056.693.056.344.2.684.2.347-.06.686-.06.347-.1.692-.1.311.12.691.12c.222 0 .461-.136.687-.136a3.982 3.982 0 0 1 .755.084c.1-.221.224-.421.323-.631s.2-.429.294-.645.087-.483.188-.688c.119-.215.176-.438.287-.647s.426-.3.541-.528c.111-.191.216-.4.334-.6s.208-.426.327-.629.208-.419.335-.615.231-.406.357-.611.267-.373.393-.586.162-.46.3-.649.358-.328.5-.519.267-.385.417-.566.4-.282.541-.47.2-.445.346-.633.366-.3.519-.484.257-.391.4-.578.252-.4.406-.576.4-.276.562-.442.288-.373.459-.541.247-.4.412-.569.35-.322.52-.493.4-.251.568-.419.321-.349.491-.52c.169-.149.244-.417.416-.578s.426-.224.6-.374.256-.434.426-.594.4-.26.574-.417.389-.264.57-.42.414-.23.6-.371.317-.355.506-.5.33-.358.513-.5c.189-.129.507-.082.7-.223s.333-.351.525-.485.371-.293.558-.425.456-.162.656-.284.362-.293.565-.425.424-.209.626-.327.287-.433.495-.567c.2-.106.458-.143.659-.254s.491-.081.7-.191.343-.371.549-.479.449-.154.661-.249.457-.144.666-.251c.208-.09.349-.358.559-.457s.424-.212.641-.3c.219-.1.512 0 .732-.09s.387-.294.607-.384.478-.053.7-.132.409-.228.634-.313.472-.08.689-.149.444-.164.671-.233.421-.222.637-.3c.234-.063.422-.242.652-.3s.488 0 .708-.072.433-.193.661-.255.45-.145.685-.2.467-.054.7-.106.461-.109.687-.16c.234-.032.474-.032.7-.083.248-.039.444-.224.675-.271s.484.062.716.026.432-.247.671-.287.495.134.729.109.447-.255.678-.283.5.214.721.173c.239-.016.467-.145.7-.165s.47 0 .706-.009.479.028.7.016c.239-.016.47-.007.707-.016s.464-.074.7-.078.474-.172.7-.172m40.47 63.393c-.1.2-.193.486-.3.7s-.166.436-.27.648-.182.437-.283.636-.312.384-.421.585-.267.394-.383.594-.192.436-.3.627c-.121.212-.228.42-.348.624s-.125.472-.253.668-.429.286-.558.491-.215.406-.349.6-.294.368-.419.559c-.145.193-.179.459-.317.643s-.256.4-.4.581-.24.4-.385.606c-.142.182-.4.279-.54.472s-.283.373-.426.556-.206.451-.355.622-.3.377-.445.543-.3.378-.464.555-.423.24-.593.408c-.147.173-.29.361-.456.537s-.388.271-.557.433-.244.42-.409.589-.285.385-.456.542-.41.253-.58.412-.381.29-.561.448-.387.265-.56.426-.373.285-.553.438-.244.429-.43.58-.471.174-.658.309c-.183.15-.264.431-.452.574s-.467.152-.668.292c-.18.14-.3.364-.5.5s-.479.13-.672.265-.3.4-.487.535-.378.278-.57.408-.428.208-.638.337-.384.265-.578.384-.47.139-.668.258c-.214.108-.346.361-.548.465s-.466.152-.666.254-.378.3-.587.406-.457.122-.671.233-.408.218-.627.329-.367.32-.578.422c-.226.085-.442.169-.662.261s-.422.208-.638.3-.46.122-.678.21-.417.235-.638.311-.5.014-.716.087-.416.269-.633.342-.459.1-.691.172-.467.055-.687.127c-.236.074-.4.3-.633.359s-.445.171-.665.233-.488.014-.723.076-.433.183-.666.236-.442.172-.675.221-.474.036-.7.078-.466.076-.689.124c-.24.046-.479.055-.7.1-.239.041-.47.1-.7.125-.231.045-.49-.04-.718-.007s-.434.264-.672.3-.487-.167-.723-.148-.451.265-.689.283-.463.023-.7.04a5.969 5.969 0 0 1-.7.069c-.233.016-.483-.195-.71-.18s-.466.146-.7.155-.478-.141-.707-.141-.475.046-.706.046-.471.113-.7.113-.48.023-.7.007c-.237 0-.465-.166-.7-.18-.223-.014-.475.146-.712.122s-.457-.146-.7-.166-.458-.046-.7-.063-.469-.012-.7-.045-.47-.009-.709-.042c-.232-.017-.463-.03-.7-.06s-.47-.072-.7-.1-.444-.2-.672-.244-.5.1-.733.062-.428-.264-.655-.3c-.231-.052-.494.081-.729.025s-.444-.195-.667-.248-.445-.155-.677-.219-.476-.033-.7-.092-.411-.293-.636-.353-.443-.145-.664-.212-.47-.066-.7-.145-.5.026-.729-.059-.38-.3-.606-.392-.49-.037-.711-.12-.368-.343-.588-.433-.429-.168-.65-.267-.431-.181-.645-.282a6.853 6.853 0 0 1-.668-.23c-.212-.088-.421-.2-.633-.3s-.441-.173-.647-.28-.362-.325-.573-.427-.459-.145-.654-.261c-.216-.115-.389-.276-.587-.4s-.428-.21-.621-.336-.445-.17-.649-.283c-.2-.134-.362-.311-.568-.428-.189-.125-.429-.191-.621-.328s-.364-.3-.564-.429-.391-.257-.582-.406c-.193-.126-.447-.174-.637-.306s-.364-.3-.555-.441-.434-.2-.626-.326c-.186-.155-.292-.41-.472-.556s-.329-.343-.512-.488-.386-.263-.575-.412-.359-.3-.533-.445-.371-.3-.542-.458-.311-.355-.484-.521-.5-.146-.669-.306l-.516-.491c-.167-.159-.3-.359-.463-.533s-.376-.294-.545-.464-.262-.392-.42-.576c-.162-.164-.343-.323-.5-.489-.152-.186-.318-.347-.468-.519-.161-.188-.17-.5-.315-.669-.162-.174-.33-.339-.478-.525s-.274-.373-.422-.562-.419-.279-.56-.459-.251-.406-.393-.583-.315-.351-.456-.535c-.134-.205-.329-.355-.467-.556-.131-.177-.141-.455-.273-.653-.134-.181-.238-.414-.362-.612s-.194-.431-.315-.633-.346-.341-.466-.53c-.124-.207-.276-.391-.4-.59s-.177-.442-.3-.647-.23-.408-.343-.61-.247-.4-.359-.612-.129-.463-.243-.675c-.1-.212-.386-.316-.492-.541s-.094-.5-.194-.71a2.061 2.061 0 0 0-.7-.055c-.348 0-.348.076-.683.076-.352 0-.352-.076-.691-.076s-.345-.014-.692-.014-.339-.028-.686-.028-.34.221-.684.221-.35-.168-.693-.168-.343.158-.689.158-.339-.032-.685-.032h-.691c-.348 0-.348-.042-.693-.042s-.339-.118-.685-.118-.343.237-.684.237-.348-.118-.693-.118c0 0-.338.016-.685.016s-.346.05-.685.05-.347-.173-.7-.173c-.335 0-.4-.132-.725-.011.081.216.251.535.331.76s.161.445.238.665.049.477.131.7.239.4.331.623.3.386.4.6 0 .514.1.723.374.343.472.575c.1.2 0 .506.1.718s.4.33.513.535c.093.224.171.438.279.642s.173.443.286.652.064.5.174.7.364.337.478.549c.117.2.1.469.218.682s.345.34.464.538.173.456.291.652.347.341.465.542.192.439.315.632.172.457.3.665c.13.177.444.262.568.459s.076.509.219.711c.118.187.375.3.516.5.136.182.23.4.367.589s.318.353.46.546.362.311.5.5.161.469.3.654.29.373.433.555.37.306.512.491.369.3.532.475.174.472.327.643.337.343.491.5c.158.184.366.308.523.49.161.165.3.368.453.537s.4.272.56.433.161.493.336.66.476.187.643.362c.167.159.286.371.453.535s.246.413.426.584.457.194.635.354.265.393.443.556.32.351.489.5c.189.15.484.15.672.311s.286.4.466.539.291.391.467.54.462.173.651.329c.18.136.381.27.57.4s.341.315.527.461.384.276.571.417.424.224.614.35c.187.146.392.268.582.4s.409.216.611.354.392.27.582.386c.2.133.355.333.548.463s.442.177.638.3.278.442.486.563.479.107.682.239c.2.1.387.265.587.384s.463.122.666.247c.209.109.371.3.576.41s.38.306.584.4.429.205.638.311.47.083.685.2c.21.1.334.378.549.482s.516 0 .733.1.426.189.645.292.371.334.576.417.442.18.661.267.4.247.626.329.5.012.718.1.388.311.612.387.442.146.666.229.479.035.709.109.428.2.654.271.463.076.684.148.407.3.633.361.477.035.71.109c.221.053.435.174.657.231s.5-.023.721.035.436.191.666.25.47.046.7.1.467.1.687.166c.23.041.479.012.7.059s.463.092.7.132.462.1.691.134.426.281.66.321.471-.005.706.026.456.186.686.236c.226.032.471 0 .708.021s.479-.079.712-.047.458.1.69.141c.239.017.46.129.7.14s.48-.161.712-.14.467.184.7.188.47.012.7.033.482-.09.7-.082c.239 0 .467.152.7.155s.467 0 .7 0 .474.009.7.009.472-.009.706-.009.474.033.707.025.461-.16.7-.16c.228-.018.473.03.7.026.241-.026.479.118.712.11s.451-.274.682-.277c.241-.025.484.122.717.1s.478-.025.7-.044.449-.24.683-.269.474-.03.7-.068.477.005.708-.027.468-.042.708-.075c.223-.029.446-.154.681-.2.231-.025.485.087.719.06.226-.06.433-.281.662-.329s.464-.03.689-.073.475-.053.705-.106.437-.185.673-.237.484.052.717 0 .477-.054.7-.108c.229-.074.456-.138.683-.2s.437-.143.672-.2c.227-.075.443-.189.666-.252s.407-.248.643-.313c.22-.073.505.056.729-.014s.4-.3.622-.375.428-.2.648-.271.472-.074.694-.146c.223-.1.4-.264.618-.346.23-.087.517 0 .732-.085s.4-.258.616-.34.465-.129.678-.217.367-.346.58-.436.465-.1.69-.2.4-.235.616-.339.49-.06.7-.156.377-.316.581-.422.472-.123.672-.229.358-.322.566-.442c.209-.1.376-.287.585-.4.2-.125.505-.059.71-.182s.372-.29.575-.408.366-.3.569-.424.382-.266.59-.387c.191-.131.507-.068.706-.194s.357-.321.553-.45.39-.249.591-.38.429-.214.618-.353.278-.415.465-.555.453-.18.642-.322l.562-.42c.19-.141.392-.261.577-.394s.366-.315.551-.454.383-.276.557-.428.371-.3.555-.444.307-.365.484-.517.423-.232.594-.391.338-.333.508-.483.3-.367.487-.532c.163-.165.4-.258.567-.421s.27-.394.437-.557.339-.325.5-.482c.176-.173.423-.257.592-.417s.255-.4.421-.569.378-.285.542-.463.251-.415.4-.58c.156-.182.378-.3.541-.467s.349-.322.506-.48c.15-.193.258-.408.41-.589s.205-.45.353-.62c.149-.187.443-.252.592-.433s.154-.467.3-.657.441-.244.583-.432.248-.415.386-.6.162-.463.3-.655.284-.377.415-.57.415-.271.542-.474.131-.479.258-.679.341-.334.47-.534.219-.413.349-.615.188-.435.309-.622c.125-.214.272-.394.385-.6s.347-.343.46-.548.312-.363.426-.567.124-.469.245-.677.125-.465.23-.668.383-.332.489-.544.162-.436.282-.65c.094-.216.23-.4.339-.613s.18-.429.28-.648.166-.437.275-.646c.089-.221.112-.457.208-.682s.367-.357.459-.571.16-.44.247-.657-.011-.523.069-.748c.088-.208.364-.35.435-.563.091-.228.06-.483.142-.7s.307-.4.387-.61c0 0-.435.011-.786.011s-.34-.15-.686-.15-.339.076-.686.076h-.683c-.207 0-.435-.09-.693-.09-.215 0-.449.062-.69.062-.223 0-.454.056-.688.056s-.446.106-.69.106-.459-.214-.691-.214-.453.046-.689.046-.467.024-.687.024h-.689c-.232 0-.47.007-.687.007-.235 0-.466-.009-.692-.009s-.458.072-.689.072-.474-.094-.69-.094c-.262 0-.486.147-.685.147-.432 0-.442-.356-.739-.179" transform="translate(-121.813 -268.24)"/>
        <path id="Path_2" d="M150.77 339.035c-.661-1.785-2.294-2.839-3.634-3.673-2.423-1.492-5.461-3.017-8-4.247 2.07-1.637 3.854-3.062 4.692-3.767a17.537 17.537 0 0 1 4.084-2.781 2.878 2.878 0 0 0 1.092-.824c1.043-1.29-.454-2.809-1.41-3.577-1.29-1.036-4.125-3.343-4.129-3.347a1.4 1.4 0 0 0-.912-.354c-.954 0-1.252.966-1.956 1.374a4.064 4.064 0 0 1-1.168.383c-1.08.251-9.149 1.559-11.141 1.81a7.971 7.971 0 0 1-1.133.074 3.322 3.322 0 0 1-2.145-.837 1.306 1.306 0 0 0-.641-.379.548.548 0 0 0-.576.223c-.213.378.019.808.186 1.143a41.694 41.694 0 0 0 3.354 5.275 3.95 3.95 0 0 0 .351.4 2.709 2.709 0 0 0 1.794.771 5.339 5.339 0 0 0 2.484-.681c1.983-.94 7.03-3.466 7.03-3.466-4.031 4.66-14.647 17.172-17.457 20.473-.244.274-.4.507-.52.647a.819.819 0 0 0-.189.451.4.4 0 0 0 .2.376.528.528 0 0 0 .512.014 3.053 3.053 0 0 0 .571-.355c.436-.3.853-.626 1.277-.931 1.635-1.2 8-6.042 10.735-8.164.887-.7 1.807-1.416 2.716-2.135a16.069 16.069 0 0 1 4.069 6.316 12.433 12.433 0 0 0 1.91 3.527 4.551 4.551 0 0 0 3.514 1.8 5.125 5.125 0 0 0 1.76-.327 4.622 4.622 0 0 0 2.868-4.126 3.181 3.181 0 0 0-.176-1.08" class="cls-2" transform="translate(-120.816 -274.216)"/>
        <path id="Path_3" d="M169.988 344.479a5.833 5.833 0 0 1-1.677-.257 4.932 4.932 0 0 1-1.572-.782 5.578 5.578 0 0 1-1.972-2.948c-.35-1.094-.306-2.407-1.152-3.264a13.13 13.13 0 0 0-1.468-1.255.792.792 0 0 1-.233-1.164.7.7 0 0 1 .539-.186 5.5 5.5 0 0 1 .946.366s1.952.858 2.5 1.078a4.54 4.54 0 0 0 2.121.465 3.212 3.212 0 0 0 1.842-1.03s17.939-19.262 17.962-19.31a.5.5 0 0 1 .484-.15.425.425 0 0 1 .2.636c-2.435 4.174-8.816 16.745-13.9 24.58a8.037 8.037 0 0 1-2.139 2.544 4.491 4.491 0 0 1-2.485.677" class="cls-2" transform="translate(-125.888 -274.161)"/>
        <path id="Path_4" d="M229.9 331.209a2.855 2.855 0 0 1-.673-1.182c-.076-.451.371-.682.765-.6a12.67 12.67 0 0 1 1.35.653 6.985 6.985 0 0 0 2.718.3c1.293 0 2.821-.126 4.138-.214.794-.052 2.661-.159 4.511-.285a41.121 41.121 0 0 0 4.377-.449 2.181 2.181 0 0 0 .92-.5 2.11 2.11 0 0 1 1.077-.518 2.734 2.734 0 0 1 2.075.867 14.442 14.442 0 0 1 2.858 3.487 1.208 1.208 0 0 1-.022 1.47c-.473.483-1.347.25-1.941.205-.787-.032-1.566-.061-2.361-.072-.47-.017-.942-.017-1.413-.017a84.392 84.392 0 0 0-11.934.8 7.31 7.31 0 0 1-1.972.089 2.883 2.883 0 0 1-1.582-.82c-.382-.346-2.689-2.946-2.889-3.207" class="cls-2" transform="translate(-134.25 -275.695)"/>
        <path id="Path_5" d="M223.613 322.685a2.46 2.46 0 0 1 1.05 1.755 1.435 1.435 0 0 1-.4.979 2.949 2.949 0 0 1-.775.575.935.935 0 0 0-.375.371 10.341 10.341 0 0 0-.8 1.539c-.47 1.03-2.54 5.309-4.084 8.509a10.22 10.22 0 0 1 .892.916 8.825 8.825 0 0 1 .934 1.2c.5.788.684 1.736-.216 2.331a2.345 2.345 0 0 1-1.749.294c-.2-.032-.452-.069-.759-.113a12.812 12.812 0 0 0-2.5-.165c-3.411.094-9.682.3-11.935.371a2.617 2.617 0 0 1-.358.824 1.865 1.865 0 0 1-2.489.553 2.307 2.307 0 0 1-.581-.488 2.469 2.469 0 0 1-.524-1.295c-.018-.35-1.335-10.207-2.272-14.567-.18-.827-.326-1.652-.549-2.469a4.454 4.454 0 0 0-1.771-2.79c-.142-.094-.273-.191-.22-.362a1.249 1.249 0 0 1 .628-.6 4.825 4.825 0 0 1 1.552-.6 8.146 8.146 0 0 1 1.731-.18h.017a7.493 7.493 0 0 1 2.91.562 3.325 3.325 0 0 1 1.812 1.764c3.722-.279 9.265-.73 10.677-.837a3.878 3.878 0 0 0 1.919-.845 3.949 3.949 0 0 1 2.121-.921 2.3 2.3 0 0 1 1.177.339 34.162 34.162 0 0 1 4.945 3.347m-20.671 12.6v1.218c2.247-.085 7.558-.283 9.539-.393.915-1.826 1.864-5.153 1.864-11.018v-.018h-.053c-.535.026-10.031.791-11.157.85a1.324 1.324 0 0 1-.15.005c-.024 2.79-.053 6.536-.053 9.357" class="cls-2" transform="translate(-129.9 -274.53)"/>
        <path id="Path_6" fill="#170f0c" d="M163.376 317.449a1.057 1.057 0 0 1-.205-.59.468.468 0 0 1 .6-.384 1.876 1.876 0 0 1 .657.325 9.953 9.953 0 0 0 1.389.681c1.495.509 3.227-.377 4.72-.09 1.518.3 2.082 1.96 2.452 3.247a3.632 3.632 0 0 1 .224 1.587c-.2 1.11-1.493 1.44-2.438 1.624a4.332 4.332 0 0 1-4.061-1.317 19 19 0 0 1-1.782-2.672c-.466-.737-.935-1.474-1.414-2.205-.047-.071-.1-.142-.141-.205" transform="translate(-126.065 -274.216)"/>
        <path id="Path_7" d="M162.463 332.128a5.334 5.334 0 0 1-1.783-1.578 39.771 39.771 0 0 1-2.3-3.715 1.4 1.4 0 0 1-.222-.712.389.389 0 0 1 .37-.326 1.049 1.049 0 0 1 .692.292 5.684 5.684 0 0 0 1.114.625 3.532 3.532 0 0 0 1.135.262 8.412 8.412 0 0 0 1.666-.053c.037-.012 1.335-.16 1.324-.146a2.591 2.591 0 0 1 2.64 1.686 10.158 10.158 0 0 1 .529 1.644 2.143 2.143 0 0 1-.057 1.5 2.544 2.544 0 0 1-1.875 1.122 3.325 3.325 0 0 1-.695.067 5.4 5.4 0 0 1-2.538-.664" class="cls-2" transform="translate(-125.444 -275.372)"/>
    </g>
</svg>
