<svg id="Group_1724" data-name="Group 1724" xmlns="http://www.w3.org/2000/svg" width="79.959" height="70" viewBox="0 0 79.959 70">
  <g id="Group_1720" data-name="Group 1720" transform="translate(1.943 2.488)">
    <g id="Group_1719" data-name="Group 1719">
      <path id="Path_1192" data-name="Path 1192" d="M553.568,359.38h15.281V346.451A2.351,2.351,0,0,0,566.5,344.1h-12.93Z" transform="translate(-493.613 -326.911)" fill="#cfcbc4"/>
      <path id="Path_1193" data-name="Path 1193" d="M558.96,381.687a9.575,9.575,0,1,0,9.576,9.576A9.587,9.587,0,0,0,558.96,381.687Z" transform="translate(-492.898 -333.326)" fill="#cfcbc4"/>
      <path id="Path_1194" data-name="Path 1194" d="M542.391,364.635c7.153-4.25,14.12,0,14.12,0v-8.1H541.23v3.949H539.1V326.9h2.264a1.663,1.663,0,0,0,1.659-1.659v-.209a1.664,1.664,0,0,0-1.659-1.659H509.417a1.663,1.663,0,0,0-1.658,1.659v.209a1.663,1.663,0,0,0,1.658,1.659h.485a40.392,40.392,0,0,0-6.462,22.806h-4.174l-.216.73a3.049,3.049,0,0,0-1.654,5.589l-2.794,9.439h3.421l.147.19-1.475,2.553c-5.711-2.479-11.891-.807-12.174-.727a1.244,1.244,0,0,0,.67,2.4,18.094,18.094,0,0,1,10.248.506l-1.155,2a9.614,9.614,0,1,0,2.185,1.192l1.162-2.013a13.029,13.029,0,0,1,5.026,7.858,1.243,1.243,0,0,0,1.2.939,1.262,1.262,0,0,0,.307-.038,1.244,1.244,0,0,0,.9-1.512,15.33,15.33,0,0,0-6.193-9.4l.938-1.623,9.094,11.781h20.007C537,367.019,542.391,364.635,542.391,364.635Zm-26.746,8.4c-7.879-.725-8.708-10.781-8.708-10.781V351.594l2.119-1.909a1.183,1.183,0,0,0,.214.022h6.323a1.244,1.244,0,1,0,0-2.488H509.27a1.238,1.238,0,0,0-.962,2.024l-1.371,1.235v-.772h-.178q-.031-1.329.029-2.6l4.1-3.7a3.279,3.279,0,0,0,1.951.808,3.352,3.352,0,1,0-2.5-1.425l-3.472,3.129a36.747,36.747,0,0,1,6.849-18.649,1.634,1.634,0,0,0,.222-.369h22.106v27.955h-12l-2.073,1.683v2.256h4.561l3.87,5.841-1.51,5.828h0l-1.842,2.569Z" transform="translate(-481.274 -323.374)" fill="#cfcbc4"/>
      <path id="Path_1195" data-name="Path 1195" d="M570.324,383.147a12.183,12.183,0,0,0-11.236-6.98c-8.063,0-12.217,6.529-12.39,6.807a1.244,1.244,0,1,0,2.112,1.314c.035-.056,3.583-5.633,10.278-5.633a9.716,9.716,0,0,1,8.944,5.459,1.244,1.244,0,1,0,2.292-.967Z" transform="translate(-492.407 -332.384)" fill="#cfcbc4"/>
    </g>
  </g>
  <circle id="Ellipse_97" data-name="Ellipse 97" cx="5.09" cy="5.09" r="5.09" transform="translate(60.969 52.018)" fill="#c9cdd4"/>
  <circle id="Ellipse_98" data-name="Ellipse 98" cx="5.09" cy="5.09" r="5.09" transform="translate(4.486 52.847)" fill="#c9cdd4"/>
  <circle id="Ellipse_99" data-name="Ellipse 99" cx="3.053" cy="3.053" r="3.053" transform="translate(14.76 27.058)" fill="#f7bc25"/>
  <path id="Rectangle_212" data-name="Rectangle 212" d="M0,0H12.446a2.835,2.835,0,0,1,2.835,2.835V15.281a0,0,0,0,1,0,0H0a0,0,0,0,1,0,0V0A0,0,0,0,1,0,0Z" transform="translate(59.956 17.189)" fill="#bc1b21"/>
  <g id="Group_1721" data-name="Group 1721" transform="translate(56.486 47.532)">
    <path id="Path_1196" data-name="Path 1196" d="M556.617,396.838a9.575,9.575,0,1,1,9.575-9.576A9.586,9.586,0,0,1,556.617,396.838Zm0-14.571a5,5,0,1,0,4.995,5A5,5,0,0,0,556.617,382.267Z" transform="translate(-547.041 -377.687)" fill="#090606"/>
  </g>
  <g id="Group_1722" data-name="Group 1722" transform="translate(0 48.361)">
    <path id="Path_1197" data-name="Path 1197" d="M488.506,397.838a9.575,9.575,0,1,1,9.575-9.575A9.586,9.586,0,0,1,488.506,397.838Zm0-14.57a4.995,4.995,0,1,0,4.995,5A5,5,0,0,0,488.506,383.267Z" transform="translate(-478.931 -378.687)" fill="#090606"/>
  </g>
  <path id="Path_1198" data-name="Path 1198" d="M515.472,334.836a3.3,3.3,0,0,0-2.919,5.2l-3.472,3.129a36.734,36.734,0,0,1,6.85-18.649,1.659,1.659,0,0,0-2.564-2.106,39.584,39.584,0,0,0-7.7,24.979,1.659,1.659,0,0,0,1.657,1.6h.057a1.66,1.66,0,0,0,1.6-1.714c-.034-1-.021-1.977.024-2.928l4.1-3.7a3.283,3.283,0,0,0,1.952.808,3.317,3.317,0,0,0,.414-6.622Z" transform="translate(-483.489 -320.618)" fill="#1a1311"/>
  <path id="Path_1199" data-name="Path 1199" d="M542.652,358.333H530.073L528,360.016v2.256h4.562l3.87,5.84-1.51,5.828,7.73-10.562Z" transform="translate(-487.305 -326.852)" fill="#1a1311"/>
  <g id="Group_1723" data-name="Group 1723" transform="translate(2.338)">
    <path id="Path_1200" data-name="Path 1200" d="M540.529,361.634c7.153-4.25,14.119,0,14.119,0v-8.1H539.367v3.949h-2.131V323.9H539.5a1.664,1.664,0,0,0,1.659-1.659v-.209a1.664,1.664,0,0,0-1.659-1.659H507.555a1.664,1.664,0,0,0-1.659,1.659v.209a1.663,1.663,0,0,0,1.659,1.659H534.18v33.587l-8.994,12.544h-11.4c-7.878-.726-8.708-10.781-8.708-10.781V348.594l2.119-1.909a1.2,1.2,0,0,0,.213.022h6.323a1.244,1.244,0,1,0,0-2.488h-6.323a1.237,1.237,0,0,0-.961,2.025l-1.371,1.235v-.771H497.4l-4.665,15.757h3.421l.147.19-1.476,2.553c-5.712-2.479-11.891-.807-12.173-.728a1.244,1.244,0,0,0,.67,2.4,18.1,18.1,0,0,1,10.248.506l-5.659,9.8a1.244,1.244,0,1,0,2.154,1.244l5.7-9.867a13.023,13.023,0,0,1,5.025,7.858,1.245,1.245,0,0,0,2.413-.611,15.328,15.328,0,0,0-6.193-9.4l.936-1.623,9.1,11.781h20.008C535.138,364.018,540.529,361.634,540.529,361.634Z" transform="translate(-481.75 -320.374)" fill="#bc1a1f"/>
    <path id="Path_1201" data-name="Path 1201" d="M567.982,380.147a12.186,12.186,0,0,0-11.237-6.98c-8.063,0-12.218,6.528-12.391,6.806a1.244,1.244,0,1,0,2.112,1.314c.035-.056,3.583-5.633,10.279-5.633a9.716,9.716,0,0,1,8.944,5.459,1.244,1.244,0,0,0,2.293-.968Z" transform="translate(-492.403 -329.384)" fill="#bc1b21"/>
  </g>
</svg>
