<svg xmlns="http://www.w3.org/2000/svg" xmlns:xlink="http://www.w3.org/1999/xlink" width="73.774" height="42.52" viewBox="0 0 73.774 42.52">
  <defs>
    <clipPath id="clip-path">
      <rect id="Rectangle_117" data-name="Rectangle 117" width="73.774" height="42.52" transform="translate(206.382 623.952)" fill="none"/>
    </clipPath>
  </defs>
  <g id="Group_288" data-name="Group 288" transform="translate(-206.382 -623.952)" opacity="0.2" clip-path="url(#clip-path)">
    <path id="Path_392" data-name="Path 392" d="M280.528,666.182V624.24l.5-.288-.5-.289v-.578l-.5.289L243.705,602.4v-.577l-.5.288-.5-.288v.577l-36.323,20.971-.5-.289v.578l-.5.289.5.288v41.942l-.5.289.5.289v.577l.5-.288,36.323,20.971v.577l.5-.289.5.289v-.577l36.323-20.971.5.288v-.577l.5-.289Zm-55.484-9.908,16.795-9.7-11.2,19.393H208.249Zm-16.8-31.822h22.393l11.2,19.393-16.795-9.7Zm53.118,9.7-16.8,9.7,11.2-19.393h22.394Zm-16.3,11.563h22.394l11.2,19.394-16.795-9.7Zm0-1,16.8-9.7,16.795-9.7-11.2,19.393Zm-1.366-1.366V604.558l11.2,19.394Zm-2.366,1.366H218.945l-11.2-19.393,16.8,9.7Zm0,1-16.795,9.7-16.8,9.7,11.2-19.394Zm1.366,1.366v38.788l-11.2-19.394Zm18.662,9.2,16.795,9.7H255.768l-11.2-19.393Zm6.964-11.063,11.2-19.393V664.6Zm-12.563-21.759-11.2-19.394,33.591,19.394Zm-13.063,19.893-11.2-19.393,11.2-19.394Zm-12.063-19.893H208.248l33.591-19.394ZM218.08,645.211l-11.2,19.394V625.818Zm12.562,21.76,11.2,19.393-33.591-19.393Zm13.063-19.894,11.2,19.394-11.2,19.394Zm12.063,19.894h22.394l-33.591,19.393Z" fill="#fff"/>
    <path id="Path_393" data-name="Path 393" d="M243.705,644.923V602.98l.5-.288-.5-.289v-.577l-.5.288-36.323-20.971v-.577l-.5.288-.5-.288v.577l-36.323,20.971-.5-.288v.577l-.5.289.5.288v41.943l-.5.288.5.289v.578l.5-.289,36.323,20.971v.577l.5-.288.5.288v-.577l36.323-20.971.5.289V645.5l.5-.289Zm-55.485-9.908,16.8-9.7-11.2,19.393H171.425Zm-16.795-31.823h22.394l11.2,19.393-16.8-9.7Zm53.118,9.7-16.795,9.7,11.2-19.393h22.394Zm-16.295,11.563h22.394l11.2,19.393-16.8-9.7Zm0-1,16.795-9.7,16.8-9.7-11.2,19.394Zm-1.366-1.367V583.3l11.2,19.394Zm-2.366,1.367H182.122l-11.2-19.394,16.795,9.7Zm0,1-16.8,9.7-16.795,9.7,11.2-19.393Zm1.366,1.366V664.6l-11.2-19.394Zm18.661,9.2,16.8,9.7H218.945l-11.2-19.393Zm6.965-11.063,11.2-19.394v38.787Zm-12.563-21.76-11.2-19.394,33.591,19.394Zm-13.063,19.893-11.2-19.393,11.2-19.394Zm-12.063-19.893H171.425L205.016,582.8Zm-12.563,21.76-11.2,19.393V604.558Zm12.563,21.759,11.2,19.394-33.591-19.394Zm13.063-19.893,11.2,19.393-11.2,19.394Zm12.063,19.893h22.394L207.748,665.1Z" fill="#fff"/>
    <path id="Path_394" data-name="Path 394" d="M317.479,644.923V602.98l.5-.288-.5-.289v-.577l-.5.288-36.323-20.971v-.577l-.5.288-.5-.288v.577l-36.323,20.971-.5-.288v.577l-.5.289.5.288v41.943l-.5.288.5.289v.578l.5-.289,36.323,20.971v.577l.5-.288.5.288v-.577l36.323-20.971.5.289V645.5l.5-.289Zm-55.484-9.908,16.8-9.7-11.2,19.393H245.2ZM245.2,603.192h22.393l11.2,19.393-16.8-9.7Zm53.118,9.7-16.8,9.7,11.2-19.393h22.394Zm-16.3,11.563h22.394l11.2,19.393-16.8-9.7Zm0-1,16.8-9.7,16.8-9.7-11.2,19.394Zm-1.366-1.367V583.3l11.2,19.394Zm-2.366,1.367H255.9l-11.2-19.394,16.795,9.7Zm0,1-16.8,9.7-16.795,9.7,11.2-19.393Zm1.366,1.366V664.6l-11.2-19.394Zm18.662,9.2,16.8,9.7H292.719l-11.2-19.393Zm6.964-11.063,11.2-19.394v38.787Zm-12.563-21.76-11.2-19.394,33.591,19.394Zm-13.063,19.893-11.2-19.393,11.2-19.394Zm-12.063-19.893H245.2L278.79,582.8Zm-12.562,21.76-11.2,19.393V604.558Zm12.562,21.759,11.2,19.394L245.2,645.711Zm13.063-19.893,11.2,19.393-11.2,19.394Zm12.063,19.893h22.394L281.522,665.1Z" fill="#fff"/>
  </g>
</svg>
