<?xml version="1.0" encoding="utf-8"?>
<!-- Generator: Adobe Illustrator 23.0.1, SVG Export Plug-In . SVG Version: 6.00 Build 0)  -->
<svg version="1.1" id="圖層_1" xmlns="http://www.w3.org/2000/svg" xmlns:xlink="http://www.w3.org/1999/xlink" x="0px" y="0px"
	 viewBox="0 0 350 35" style="enable-background:new 0 0 350 35;" xml:space="preserve">
<style type="text/css">
	.st0{fill:#231815;}
</style>
<path class="st0" d="M1.48,13.22c-0.1,0.27-0.17,0.5-0.17,0.7c0,0.8,0.7,1.27,1.5,1.27c1.83,0,5.6-2.93,9.67-2.93
	c5.07,0,6.13,3.43,6.13,7.53c0,5.63-4.57,10.87-14.07,12.77l-0.3-0.57c7.8-2.97,10.53-8.3,10.53-12.6c0-3.2-0.37-5.53-2.93-5.53
	c-2.23,0-4.73,1.73-6.3,3.63c-0.63,0.8-1.07,1.47-2.27,1.47c-1.57,0-3.4-1.87-3.4-3.47c0-1.07,0.5-2.03,1.23-2.5L1.48,13.22z
	 M6.55,8.89c0.97-0.5,3.73-1.93,3.73-2.07c0-0.03-0.07-0.07-0.17-0.07c-0.97-0.17-2.9-0.07-4.07-0.67c-1.33-0.63-2.17-1.67-2.4-3.17
	l0.37-0.33c0.6,1,2,1.47,4.2,1.47c1.03,0,2.13-0.07,3.03-0.07c2.47,0,4.2,1.1,4.2,2.6c0,1.07-1.23,1.33-2.5,1.33
	c-1.23,0-3.27,0.43-6.13,1.43L6.55,8.89z"/>
<path class="st0" d="M34.97,4.81c0.27-0.83,1.2-1.63,2.47-1.63c2.27,0,4.37,1.13,4.37,2.2c0,0.53-0.53,0.87-0.67,1.6
	c-0.03,0.27-0.07,0.9-0.13,1.7c1.4-0.13,5.57-0.7,5.93-1.97l0.37-0.1c1.4,0.4,3.87,0.37,3.87,1.8c-0.03,0.93-1.23,1.37-3.33,1.77
	c-1.9,0.4-4.93,0.73-6.93,0.9c-0.03,1-0.03,2-0.03,2.93c0,0.63,0.03,1.37,0.03,1.97c0.97-0.07,5.1-0.47,5.1-1.27
	c0-0.2-0.17-0.5-0.5-0.73l0.37-0.33c0.8,0.47,1,0.7,1.8,0.73c1.03,0,2.53,0.3,2.53,1.2c0,0.97-0.77,1.5-2.73,1.87
	c-1.43,0.3-4.03,0.6-6.47,0.8c0.07,1.67,0.13,3.2,0.3,4.13c0.03,0.37,0.1,0.73,0.13,1.13c2.73,0.7,5.87,2.07,7.3,3.17
	c1.27,0.97,1.7,1.83,1.7,2.87c0,0.87-0.8,1.47-1.63,1.47c-0.8,0-1.57-0.37-2.37-1.33c-1.1-1.23-2.7-2.4-4.77-3.3l0.03,1.5
	c0,2.6-2,4.1-6.6,4.1c-4.6,0-7-2.23-7-4.83c0-2.6,3.33-4.33,7.23-4.33c0.93,0,2.23,0.07,3.17,0.2c0-0.37-0.3-4.3-0.3-4.6
	c-1.13,0.1-3.03,0.17-4.37,0.17c-3.3,0-4.9-1-4.9-2.57c0.03-1.1,1.13-2.27,3-3.17l0.3,0.37c-1.13,0.67-1.63,1.37-1.63,2.07
	c0,0.83,0.93,1.23,3.07,1.23c1.3,0,3.23-0.13,4.47-0.23l-0.1-5c-1.63,0.1-3.8,0.17-4.93,0.17c-3.5,0-5.17-0.63-6.13-3.47l0.37-0.33
	c0.93,1.07,2.83,1.63,4.6,1.63c1.53,0,4.5-0.13,6.03-0.3V7.74c-0.07-1.87-0.1-2.9-2-2.9c-0.27,0-0.57,0.03-0.9,0.1L34.97,4.81z
	 M38.51,25.07c-1.03-0.3-2.53-0.57-3.6-0.57c-2.83,0-4.63,1-4.63,2.33c0,1.57,1.77,2.33,4.6,2.33c2.97,0,3.67-0.9,3.63-2.73V25.07z"
	/>
<path class="st0" d="M59.53,6.31c0.3-0.3,0.73-0.4,1.03-0.4c2.93,0,4.87,2.23,4.87,4c0,0.73-0.3,1.07-0.5,1.5
	c-0.93,2.3-1.23,4.33-1.23,7.27c0,2.7,1.5,5.43,2.8,5.43c0.43,0,0.77-0.27,1.63-1.47c0.97-1.33,2.67-4.1,4-6.37l0.53,0.23
	c-2.87,7.23-3.37,8.57-3.37,9.27c0,0.23,0.07,0.47,0.23,0.67c0.4,0.4,0.7,1.07,0.7,1.43c0,1.03-0.77,1.37-1.8,1.37
	c-2.73,0-7.37-3.77-7.37-12.1c0-1.2,0.3-7.53,0.3-7.53c0-2.13-1.03-3.03-1.8-3.2L59.53,6.31z M78.03,8.81
	c7.1,0.57,10.23,5.57,10.23,9.33c0,1.67-0.73,3.13-2.17,3.13c-0.8,0-1.57-0.53-1.6-1.53c-0.27-4.9-2.4-9.4-6.7-10.27L78.03,8.81z"/>
<path class="st0" d="M118.66,8.34c1.47-0.13,2.27-0.4,2.77-1.1c2.5,0.57,4.53,1.47,4.53,2.83c0,0.53-0.7,0.77-1.2,0.77
	c-0.97,0-2.17-0.3-3.63-0.43c-0.93-0.1-2.23-0.17-3.53-0.17c-1.07,0-2.13,0.03-3.03,0.1c0,2.5,0,4.97,0.07,6.23
	c0.5,0.8,1.03,2.07,1.03,4.5c0,6-3.27,9.7-10.93,11.43l-0.27-0.53c4.63-1.83,7.13-5.4,7.5-8.3c-0.67,0.87-1.87,1.27-3.2,1.27
	c-3,0-5.4-2-5.4-5.4c0-2.97,2.4-5.53,5.77-5.53c0.9,0,1.97,0.23,2.53,0.6c0-1.37-0.03-2.97-0.1-4.03c-1.97,0.17-5.47,0.7-6.93,1
	c-1.07,0.23-1.9,0.47-2.53,0.7c-0.73,0.23-1.07,0.67-1.8,0.67c-1.53,0-3.67-1.9-3.67-3.5c0-0.57,0.23-1.27,0.7-1.67l0.23,0.03
	c0.03,1.07,1.13,2.2,3.43,2.2c1.33,0,8.8-0.9,10.47-1.07c-0.13-3.4-0.2-4.6-2.17-4.6c-0.33,0-0.63,0.03-0.9,0.1l-0.17-0.17
	c0.47-0.93,1.37-1.63,2.63-1.63c1.9,0,4.27,1.07,4.27,2.5c-0.03,0.43-0.23,0.67-0.4,1.17c-0.13,0.37-0.17,1.13-0.17,2.33
	L118.66,8.34z M112.03,18.94c0-1.63-0.97-3.23-2.87-3.23c-1.53,0-2.97,1.27-2.97,3.73c0,2.13,1.47,3.17,2.83,3.17
	C111.49,22.61,112.03,20.54,112.03,18.94"/>
<path class="st0" d="M134.32,5.44c0.3-0.8,1.3-1.57,2.43-1.57c2.43,0,4.6,1.53,4.6,2.9c-0.03,0.87-0.57,0.97-0.97,2.83
	c-0.6,2.8-1.2,9.03-1.23,13.03c0,4.37,2.23,5.37,5.97,5.37c4.8,0,9.1-2.5,12.2-7.7l0.5,0.27c-2.7,7.8-7.6,10.7-12.97,10.7
	c-4.83,0-8.6-1.8-8.6-8.53c0-4.23,0.57-10.83,0.93-15.47V7.04c0-1.57-1.33-1.57-1.93-1.57c-0.3,0-0.6,0-0.87,0.07L134.32,5.44z"/>
<path class="st0" d="M187.88,12.41c0.4-0.57,1.3-0.93,2.07-0.93c2.3,0,4.3,2.07,4.3,3.27c0,1.37-1.33,1.53-2.9,2
	c-1.6,0.47-4.93,1.73-7.27,2.8c0.03,0.5,0.1,1.33,0.1,1.93c0,3.4-1,4.67-2.3,4.67c-0.93,0-1.43-0.7-1.43-1.77
	c0-0.13,0.03-0.27,0.03-0.4c0.13-1.03,0.3-2.5,0.27-3.13c-2.83,1.53-4.77,3.17-4.77,5.43c0,1.93,1.8,2.57,5.57,2.57
	c2.6,0,5.33-0.27,5.87-0.7c2.27,0.33,3.7,0.9,3.7,1.93c0,0.9-0.57,1.27-2.2,1.57c-1.33,0.27-4.7,0.33-6.53,0.33
	c-5.63,0-8.73-1.6-8.73-4.9c0-3.33,3.9-6.33,7-8.13c0-2.4-0.73-3.4-2.17-3.4c-2.53,0-5.73,3.17-8.47,7.3
	c-0.83,1.3-1.43,1.97-2.27,1.97c-0.83,0-1.57-0.67-1.57-2.03c0-1.07,0.9-1.77,1.93-2.6c2.73-2.17,5.2-6.13,6.07-8.87
	c-0.67,0.07-1.63,0.07-2.13,0.07c-3.77,0-4.33-2.7-4.33-3.8l0.27-0.13c0.7,1.17,1.73,1.83,3.63,1.87c0.77,0,2.43-0.13,3.33-0.33
	c0.37-1.1,0.53-2.1,0.53-2.83c0-0.9-0.83-1.33-1.73-1.33c-0.27,0-0.57,0.03-0.83,0.13l-0.07-0.03c0.07-0.77,1.27-1.73,2.6-1.73
	c2.13,0,3.93,0.9,3.93,1.93c0,0.7-0.53,1.03-0.77,1.6c-0.17,0.47-0.43,1.2-0.67,1.77c0.23-0.03,5.3-0.93,5.73-2.57
	c2,0.07,4.03,0.33,4.03,1.7c0,0.83-1.27,1.4-2.53,1.73c-1.8,0.53-5.53,1.33-8.27,1.7c-0.83,2.07-2,4.23-2.87,5.43l0.1,0.07
	c2.1-1.87,3.87-2.5,5.2-2.5c1.9,0,3.5,0.93,4.13,3.37c2.9-1.43,6.4-3,6.4-3.9c0-0.57-0.6-0.87-1.27-0.87c-0.2,0-0.37,0.03-0.57,0.07
	L187.88,12.41z"/>
<path class="st0" d="M202.91,23.97c4.87,1.03,8.27,3.5,8.27,5.93c0,1.3-0.97,2.07-1.97,2.07c-0.7,0-1.4-0.33-1.87-1.1
	c-0.47-2.1-1.97-4.87-4.73-6.47L202.91,23.97z"/>
<path class="st0" d="M228.93,2.31l3.5,2.57c-0.2,0.23-0.67,0.5-1.27,0.63v23.5c0,2.27-0.53,3.9-4.1,4.23c0-2.57-0.6-3.07-2.83-3.33
	v-0.43h3.23c0.33,0,0.43-0.13,0.43-0.5v-8.53h-3.33c-0.4,4.5-1.5,9.2-4.57,12.83l-0.47-0.23c2.03-5.63,2.03-12.47,2.03-19.5V2.67
	l3.77,1.4h2.27L228.93,2.31z M224.8,13.51c0,1.9,0,4.07-0.17,6.27h3.27v-7.3h-3.1V13.51z M227.9,4.74h-3.1v7.07h3.1V4.74z
	 M246.56,20.21l3.13,2.77c-0.23,0.33-0.57,0.43-1.37,0.47c-1.03,1.73-2.4,3.27-4.07,4.53c2.13,0.9,4.5,1.5,6.9,1.87l-0.03,0.4
	c-1.33,0.33-2.2,1.4-2.6,3.03c-2.6-0.9-4.9-2.07-6.77-3.6c-2.87,1.63-6.37,2.8-10.4,3.57l-0.17-0.5c3.57-1.07,6.6-2.57,9-4.53
	c-1.07-1.13-2-2.47-2.7-3.97c-1.63,1.57-3.57,3.07-5.73,4.17l-0.27-0.47c2.8-2.53,5.13-6.43,6.3-9.53h-0.2v0.3
	c0,0.07-0.47,1.17-3.23,1.17v-9.27c-0.83,0.87-1.7,1.6-2.57,2.23l-0.47-0.27c1.67-2.4,3.37-6.6,4.37-10.7l4.47,1.53
	c-0.13,0.4-0.43,0.6-1.27,0.57c-0.37,0.77-0.77,1.53-1.2,2.23h7.87l1.93-2.43l3.6,2.5c-0.27,0.47-0.73,0.6-1.63,0.6h-12.2
	c-0.5,0.83-1.07,1.6-1.67,2.3l2.2,0.9h7.5l1.27-1.6l3.47,2.4c-0.17,0.2-0.57,0.43-1.07,0.53v7.4c0,0.07-0.97,0.87-3.37,0.87v-1.27
	h-6.4l2.87,1.37c-0.17,0.33-0.47,0.53-1.27,0.43c-0.37,0.57-0.8,1.17-1.27,1.77h5.1L246.56,20.21z M245.6,10.74h-8v3.13h8V10.74z
	 M237.6,17.74h8v-3.2h-8V17.74z M238.96,22.64c-0.27,0.33-0.57,0.63-0.87,0.97c0.97,1.23,2.2,2.27,3.67,3.13
	c1.2-1.23,2.17-2.6,2.93-4.1H238.96z"/>
<path class="st0" d="M259.52,18.84h23.97l2.53-3.37l4.67,3.47c-0.33,0.57-0.83,0.73-1.87,0.73h-29.06L259.52,18.84z"/>
<path class="st0" d="M327.38,1.79l3.4,2.57c-0.27,0.43-0.7,0.57-1.6,0.57h-7.27l2.97,0.93c-0.17,0.43-0.47,0.67-1.37,0.63
	c-0.67,1.77-1.37,3.4-2.17,4.93l1.7,0.63c-0.1,0.33-0.4,0.53-1,0.63v19.07c-0.07,0.23-1.53,0.97-2.87,0.97h-0.63v-16.7
	c-2.3,3.2-5.03,5.73-8.1,7.63l-0.4-0.33c0.77-0.73,1.57-1.6,2.33-2.57h-0.03c-0.27,0.17-0.57,0.23-0.87,0.23
	c-0.5,0-1.03-0.23-1.47-0.77c-0.07-1.57-0.83-3.63-1.87-5.03v16.5c0,0.07-0.47,1.07-3.47,1.07V18.79c-1.4,2.33-3.13,4.47-5.2,6.3
	l-0.43-0.43c2.67-3.9,4.37-9.23,5.27-14.37h-4.83l-0.17-0.63h5.37v-8.2l4.8,0.47c-0.07,0.47-0.33,0.73-1.33,0.83v6.9h0.63l1.73-2.43
	l3.17,2.5c-0.27,0.43-0.7,0.57-1.57,0.57h-3.97v4.33c3.9,1.27,5.13,3.07,5.13,4.43c0,0.17-0.03,0.33-0.07,0.5h0.03
	c2.7-3.87,5.07-9.07,6.47-14.63h-8.87l-0.17-0.63h14.87L327.38,1.79z M322.38,13.46c6.13,2.03,8.07,5,8.07,7
	c0,1.3-0.77,2.2-1.77,2.2c-0.47,0-1-0.2-1.5-0.67c-0.63-2.73-2.87-6.23-5.07-8.27L322.38,13.46z"/>
<path class="st0" d="M343.61,23.95c2.5,0,4.5,2,4.5,4.47c0,2.5-2,4.5-4.5,4.5c-2.47,0-4.47-2-4.47-4.5
	C339.14,25.88,341.21,23.95,343.61,23.95 M347.08,28.42c0-1.87-1.57-3.43-3.47-3.43c-1.9,0-3.43,1.57-3.43,3.43
	c0,1.9,1.53,3.47,3.43,3.47C345.58,31.88,347.08,30.25,347.08,28.42"/>
</svg>
