<?xml version="1.0" encoding="utf-8"?>
<!-- Generator: Adobe Illustrator 23.0.1, SVG Export Plug-In . SVG Version: 6.00 Build 0)  -->
<svg version="1.1" id="圖層_1" xmlns="http://www.w3.org/2000/svg" xmlns:xlink="http://www.w3.org/1999/xlink" x="0px" y="0px"
	 viewBox="0 0 375 35" style="enable-background:new 0 0 375 35;" xml:space="preserve">
<style type="text/css">
	.st0{fill:#231815;}
</style>
<path class="st0" d="M1.48,13c-0.1,0.27-0.17,0.5-0.17,0.7c0,0.8,0.7,1.27,1.5,1.27c1.83,0,5.6-2.93,9.67-2.93
	c5.07,0,6.13,3.43,6.13,7.53c0,5.63-4.57,10.87-14.07,12.77l-0.3-0.57c7.8-2.97,10.53-8.3,10.53-12.6c0-3.2-0.37-5.53-2.93-5.53
	c-2.23,0-4.73,1.73-6.3,3.63c-0.63,0.8-1.07,1.47-2.27,1.47c-1.57,0-3.4-1.87-3.4-3.47c0-1.07,0.5-2.03,1.23-2.5L1.48,13z
	 M6.55,8.67c0.97-0.5,3.73-1.93,3.73-2.07c0-0.03-0.07-0.07-0.17-0.07c-0.97-0.17-2.9-0.07-4.07-0.67C4.71,5.23,3.88,4.2,3.65,2.7
	l0.37-0.33c0.6,1,2,1.47,4.2,1.47c1.03,0,2.13-0.07,3.03-0.07c2.47,0,4.2,1.1,4.2,2.6c0,1.07-1.23,1.33-2.5,1.33
	c-1.23,0-3.27,0.43-6.13,1.43L6.55,8.67z"/>
<path class="st0" d="M34.35,4.58c0.27-0.83,1.2-1.63,2.47-1.63c2.27,0,4.37,1.13,4.37,2.2c0,0.53-0.53,0.87-0.67,1.6
	c-0.03,0.27-0.07,0.9-0.13,1.7c1.4-0.13,5.57-0.7,5.93-1.97l0.37-0.1c1.4,0.4,3.87,0.37,3.87,1.8c-0.03,0.93-1.23,1.37-3.33,1.77
	c-1.9,0.4-4.93,0.73-6.93,0.9c-0.03,1-0.03,2-0.03,2.93c0,0.63,0.03,1.37,0.03,1.97c0.97-0.07,5.1-0.47,5.1-1.27
	c0-0.2-0.17-0.5-0.5-0.73l0.37-0.33c0.8,0.47,1,0.7,1.8,0.73c1.03,0,2.53,0.3,2.53,1.2c0,0.97-0.77,1.5-2.73,1.87
	c-1.43,0.3-4.03,0.6-6.47,0.8c0.07,1.67,0.13,3.2,0.3,4.13c0.03,0.37,0.1,0.73,0.13,1.13c2.73,0.7,5.87,2.07,7.3,3.17
	c1.27,0.97,1.7,1.83,1.7,2.87c0,0.87-0.8,1.47-1.63,1.47c-0.8,0-1.57-0.37-2.37-1.33c-1.1-1.23-2.7-2.4-4.77-3.3l0.03,1.5
	c0,2.6-2,4.1-6.6,4.1c-4.6,0-7-2.23-7-4.83s3.33-4.33,7.23-4.33c0.93,0,2.23,0.07,3.17,0.2c0-0.37-0.3-4.3-0.3-4.6
	c-1.13,0.1-3.03,0.17-4.37,0.17c-3.3,0-4.9-1-4.9-2.57c0.03-1.1,1.13-2.27,3-3.17l0.3,0.37c-1.13,0.67-1.63,1.37-1.63,2.07
	c0,0.83,0.93,1.23,3.07,1.23c1.3,0,3.23-0.13,4.47-0.23l-0.1-5c-1.63,0.1-3.8,0.17-4.93,0.17c-3.5,0-5.17-0.63-6.13-3.47l0.37-0.33
	c0.93,1.07,2.83,1.63,4.6,1.63c1.53,0,4.5-0.13,6.03-0.3V7.52c-0.07-1.87-0.1-2.9-2-2.9c-0.27,0-0.57,0.03-0.9,0.1L34.35,4.58z
	 M37.88,24.85c-1.03-0.3-2.53-0.57-3.6-0.57c-2.83,0-4.63,1-4.63,2.33c0,1.57,1.77,2.33,4.6,2.33c2.97,0,3.67-0.9,3.63-2.73V24.85z"
	/>
<path class="st0" d="M58.28,6.08c0.3-0.3,0.73-0.4,1.03-0.4c2.93,0,4.87,2.23,4.87,4c0,0.73-0.3,1.07-0.5,1.5
	c-0.93,2.3-1.23,4.33-1.23,7.27c0,2.7,1.5,5.43,2.8,5.43c0.43,0,0.77-0.27,1.63-1.47c0.97-1.33,2.67-4.1,4-6.37l0.53,0.23
	c-2.87,7.23-3.37,8.57-3.37,9.27c0,0.23,0.07,0.47,0.23,0.67c0.4,0.4,0.7,1.07,0.7,1.43c0,1.03-0.77,1.37-1.8,1.37
	c-2.73,0-7.37-3.77-7.37-12.1c0-1.2,0.3-7.53,0.3-7.53c0-2.13-1.03-3.03-1.8-3.2L58.28,6.08z M76.78,8.58
	c7.1,0.57,10.23,5.57,10.23,9.33c0,1.67-0.73,3.13-2.17,3.13c-0.8,0-1.57-0.53-1.6-1.53c-0.27-4.9-2.4-9.4-6.7-10.27L76.78,8.58z"/>
<path class="st0" d="M116.78,8.12c1.47-0.13,2.27-0.4,2.77-1.1c2.5,0.57,4.53,1.47,4.53,2.83c0,0.53-0.7,0.77-1.2,0.77
	c-0.97,0-2.17-0.3-3.63-0.43c-0.93-0.1-2.23-0.17-3.53-0.17c-1.07,0-2.13,0.03-3.03,0.1c0,2.5,0,4.97,0.07,6.23
	c0.5,0.8,1.03,2.07,1.03,4.5c0,6-3.27,9.7-10.93,11.43l-0.27-0.53c4.63-1.83,7.13-5.4,7.5-8.3c-0.67,0.87-1.87,1.27-3.2,1.27
	c-3,0-5.4-2-5.4-5.4c0-2.97,2.4-5.53,5.77-5.53c0.9,0,1.97,0.23,2.53,0.6c0-1.37-0.03-2.97-0.1-4.03c-1.97,0.17-5.47,0.7-6.93,1
	c-1.07,0.23-1.9,0.47-2.53,0.7c-0.73,0.23-1.07,0.67-1.8,0.67c-1.53,0-3.67-1.9-3.67-3.5c0-0.57,0.23-1.27,0.7-1.67l0.23,0.03
	c0.03,1.07,1.13,2.2,3.43,2.2c1.33,0,8.8-0.9,10.47-1.07c-0.13-3.4-0.2-4.6-2.17-4.6c-0.33,0-0.63,0.03-0.9,0.1l-0.17-0.17
	c0.47-0.93,1.37-1.63,2.63-1.63c1.9,0,4.27,1.07,4.27,2.5c-0.03,0.43-0.23,0.67-0.4,1.17c-0.13,0.37-0.17,1.13-0.17,2.33
	L116.78,8.12z M110.14,18.72c0-1.63-0.97-3.23-2.87-3.23c-1.53,0-2.97,1.27-2.97,3.73c0,2.13,1.47,3.17,2.83,3.17
	C109.61,22.38,110.14,20.32,110.14,18.72"/>
<path class="st0" d="M131.81,5.22c0.3-0.8,1.3-1.57,2.43-1.57c2.43,0,4.6,1.53,4.6,2.9c-0.03,0.87-0.57,0.97-0.97,2.83
	c-0.6,2.8-1.2,9.03-1.23,13.03c0,4.37,2.23,5.37,5.97,5.37c4.8,0,9.1-2.5,12.2-7.7l0.5,0.27c-2.7,7.8-7.6,10.7-12.97,10.7
	c-4.83,0-8.6-1.8-8.6-8.53c0-4.23,0.57-10.83,0.93-15.47V6.82c0-1.57-1.33-1.57-1.93-1.57c-0.3,0-0.6,0-0.87,0.07L131.81,5.22z"/>
<path class="st0" d="M163.94,5.9c0.27,1.37,1.17,1.97,2.6,1.97c0.6,0,1.77-0.13,2.63-0.3c2.77-0.6,10.03-1.93,13.77-2.4
	c1.13-0.13,2.13-0.5,2.63-0.97c3.07,0.53,4.53,1.3,4.53,2.7c0,0.93-1.23,1.07-2.57,1.07c-0.47,0-0.97-0.03-1.43-0.03
	c-4,0-7.83,3.13-9.37,5.73c-0.87,1.5-1.6,4.43-1.6,6.9c0.03,3.67,2.07,5.33,5.6,5.8c2.13,0.23,4.1,0.47,4.1,2.87
	c0,0.87-0.83,1.27-2.03,1.27c-0.23,0-0.47,0-0.73-0.03c-7.23-0.83-9.73-3.67-9.73-9.37c0-5.5,3.77-11.03,8.7-13.83v-0.1
	c-3.97,0.47-10.5,2.03-12.5,3.63c-0.43,0.3-0.97,0.67-1.67,0.67c-1.57,0-3.83-1.83-3.83-3.9c0-0.7,0.27-1.3,0.63-1.7L163.94,5.9z
	 M182.71,12.97c3.23,0.8,5.03,2.3,5.03,3.67c0,0.63-0.33,1.23-1,1.23c-0.6,0-1-0.37-1.2-0.93c-0.37-1.07-1.37-2.6-3.13-3.53
	L182.71,12.97z M186.14,10.17c3.23,0.8,5.07,2.3,5.07,3.67c0,0.63-0.33,1.23-1,1.23c-0.63,0-1-0.4-1.2-0.97
	c-0.37-1.07-1.4-2.6-3.13-3.5L186.14,10.17z"/>
<path class="st0" d="M199.24,22.5c4.87,1.03,8.27,3.5,8.27,5.93c0,1.3-0.97,2.07-1.97,2.07c-0.7,0-1.4-0.33-1.87-1.1
	c-0.47-2.1-1.97-4.87-4.73-6.47L199.24,22.5z"/>
<path class="st0" d="M220.17,14.9c0.87,2.27,1.23,4.23,1.23,5.9c0,3.43-1.67,6.63-4.37,6.63c-1.27,0-1.8-0.83-1.8-1.6
	c0-0.67,0.4-1.37,0.97-1.87c1.9-1.33,3.67-4.9,3.5-9.07H220.17z M223.57,2.8c0.53-0.03,1.03-0.03,1.53-0.03
	c7.5,0,9.97,2.77,9.97,4.77c0,1.1-0.77,1.97-1.87,1.97c-0.3,0-0.63-0.1-1-0.23c-1.13-1.83-4.13-4.5-8.7-6.03L223.57,2.8z
	 M224.3,11.37l4.8,0.4c-0.03,0.4-0.23,0.63-1.23,0.8V27.7c0,1.07,0.13,1.13,1.27,1.13h5.57c0.63,0,1,0,1.33-0.53
	c0.37-0.53,0.93-2.4,1.63-4.7h0.27l-0.03,4.93c1.3,0.53,1.5,0.73,1.5,1.23c0,1.43-1.07,2.17-4.7,2.17h-5.67
	c-3.87,0-4.73-0.77-4.73-4.33V11.37z M238.24,13.7c6.1,3.1,8.03,7.1,8.03,9.97c0,2.23-1.13,3.8-2.43,3.8c-0.57,0-1.17-0.33-1.7-1.03
	c0.17-3.4-0.67-8.8-4.17-12.43L238.24,13.7z"/>
<path class="st0" d="M271.84,18.73c2.67,3.37,5.07,4.97,5.07,7.5c0,3-2.53,5.47-10.17,5.47c-5.93-0.03-8.17-2.53-8.17-7.1
	c0-1.1,0.23-2.6,0.27-3.47c-2.93-0.23-4.87-1.43-4.83-3.53c0-1.93,2.63-4.47,5.67-5.6c-0.03,0-0.97-0.1-1.13-0.1
	c-2.3-0.23-4-1.47-3.73-4.3l0.47-0.13c0.13,1.4,1.73,2.33,4.13,2.33c0.5,0,1,0,1.5-0.07c0.17-1.17,0.33-2.67,0.33-3.7
	c0-1.1-0.8-1.57-1.73-1.57c-0.27,0-0.5,0.03-0.77,0.1l-0.07-0.03c0.3-0.9,1.03-1.53,2.23-1.53c2.27,0,4.07,1.4,4.07,2.47
	c0,0.5-0.4,1.23-0.63,2.1C264.27,8,264.1,8.63,264,9.13c1.07-0.2,1.97-0.5,2.4-0.9c1.53-0.13,3.13,1,3.13,2
	c0,1.33-4.13,1.57-6.27,1.7c-0.53,1.9-1.23,4.33-1.6,6.47c1.7,0,3.93-0.3,4.3-0.57c1.87,0.37,3.27,1.27,3.27,2.4
	c0,0.73-0.93,1.03-1.67,1.03h-0.27c-1.73-0.13-3.27-0.1-5.97-0.07c-0.1,0.7-0.2,1.87-0.2,2.57c0,3.33,0.87,4.83,5.4,4.83
	c5.6,0,7.17-1.53,7.17-3.97c0-1.73-0.9-3.57-2.43-5.53L271.84,18.73z M260.57,12.17c-2.53,1.07-4.5,2.8-4.47,4.47
	c0,1.43,1.2,1.7,3.17,1.77C259.64,16.5,260.17,13.93,260.57,12.17"/>
<path class="st0" d="M284.64,18.62h23.97l2.53-3.37l4.67,3.47c-0.33,0.57-0.83,0.73-1.87,0.73h-29.06L284.64,18.62z"/>
<path class="st0" d="M351.87,2.03l3.4,2.57c-0.27,0.43-0.7,0.57-1.6,0.57h-7.27l2.97,0.93c-0.17,0.43-0.47,0.67-1.37,0.63
	c-0.67,1.77-1.37,3.4-2.17,4.93l1.7,0.63c-0.1,0.33-0.4,0.53-1,0.63V32c-0.07,0.23-1.53,0.97-2.87,0.97h-0.63v-16.7
	c-2.3,3.2-5.03,5.73-8.1,7.63l-0.4-0.33c0.77-0.73,1.57-1.6,2.33-2.57h-0.03c-0.27,0.17-0.57,0.23-0.87,0.23
	c-0.5,0-1.03-0.23-1.47-0.77c-0.07-1.57-0.83-3.63-1.87-5.03v16.5c0,0.07-0.47,1.07-3.47,1.07V19.03c-1.4,2.33-3.13,4.47-5.2,6.3
	l-0.43-0.43c2.67-3.9,4.37-9.23,5.27-14.37h-4.83L323.8,9.9h5.37V1.7l4.8,0.47c-0.07,0.47-0.33,0.73-1.33,0.83v6.9h0.63L335,7.47
	l3.17,2.5c-0.27,0.43-0.7,0.57-1.57,0.57h-3.97v4.33c3.9,1.27,5.13,3.07,5.13,4.43c0,0.17-0.03,0.33-0.07,0.5h0.03
	c2.7-3.87,5.07-9.07,6.47-14.63h-8.87l-0.17-0.63h14.87L351.87,2.03z M346.87,13.7c6.13,2.03,8.07,5,8.07,7c0,1.3-0.77,2.2-1.77,2.2
	c-0.47,0-1-0.2-1.5-0.67c-0.63-2.73-2.87-6.23-5.07-8.27L346.87,13.7z"/>
<path class="st0" d="M367.47,24.03c2.5,0,4.5,2,4.5,4.47c0,2.5-2,4.5-4.5,4.5C365,33,363,31,363,28.5
	C363,25.97,365.07,24.03,367.47,24.03 M370.93,28.5c0-1.87-1.57-3.43-3.47-3.43c-1.9,0-3.43,1.57-3.43,3.43
	c0,1.9,1.53,3.47,3.43,3.47C369.43,31.97,370.93,30.33,370.93,28.5"/>
</svg>
