<?xml version="1.0" encoding="utf-8"?>
<!-- Generator: Adobe Illustrator 23.0.1, SVG Export Plug-In . SVG Version: 6.00 Build 0)  -->
<svg version="1.1" id="圖層_1" xmlns="http://www.w3.org/2000/svg" xmlns:xlink="http://www.w3.org/1999/xlink" x="0px" y="0px"
	 viewBox="0 0 80 85.7" style="enable-background:new 0 0 80 85.7;" xml:space="preserve">
<style type="text/css">
	.st0{fill:#CFCBC4;}
	.st1{fill:#FFFFFF;}
	.st2{fill:#090606;}
	.st3{fill:#A70719;}
	.st4{fill:#1A1311;}
	.st5{fill:#170F0C;}
	.st6{fill:#C9CDD4;}
	.st7{fill:#8A101B;}
</style>
<g id="Group_1751" transform="translate(-496.862 -487.982)">
	<path id="Path_1231" class="st0" d="M575.9,566.4L575.9,566.4c-0.1-0.1-0.1-0.3-0.2-0.4l-0.3-0.4h0l-5.1-7.8l0,0l-1.7-2.6
		c-0.3-0.5-0.8-0.8-1.4-1h-1.6v-1.4c0-0.6-0.4-1-1-1h-1c-0.6,0-1,0.4-1,1v1.4H562l-0.6-6.8c1.3,0.1,2.7,0.3,4,0.7l0.6,3.1
		c0.1,0.3,0.3,0.6,0.6,0.7l5.2,2.9c0.4,0.2,0.9,0.1,1.2-0.2l3-3c1.2-1.2,1.2-3.2,0-4.4c0,0,0,0,0,0c-4.1-3.9-9.5-6.1-15.1-6.2
		l-2.7-31.8c-0.1-0.8-0.7-1.4-1.5-1.3h-9.1v-10.1c0-0.1,0-0.2,0-0.3c0,0,0,0,0,0c0-0.1-0.1-0.2-0.1-0.3c0,0,0-0.1,0-0.1
		c-0.1-0.1-0.2-0.2-0.2-0.3c0,0,0,0,0,0l-7.2-6.4c-0.3-0.3-0.7-0.4-1.1-0.4h-16c-0.4,0-0.8,0.1-1,0.4l-7.2,6.4l0,0
		c-0.1,0.1-0.2,0.2-0.2,0.3c0,0,0,0.1,0,0.1c-0.1,0.1-0.1,0.2-0.1,0.3c0,0,0,0,0,0c0,0.1,0,0.2,0,0.3v10.1h-9.2
		c-0.8,0-1.4,0.6-1.5,1.3l-5.1,59.7c0,0.4,0.1,0.8,0.4,1.1c0.3,0.3,0.7,0.5,1.1,0.5H543c0.6,1.2,1.7,1.9,2.9,2.1h1.9v0.1
		c0,0.6,0.4,1,1,1h1c0.6,0,1-0.4,1-1v-0.1h17.1v0.1c0,0.6,0.4,1,1,1h1c0.6,0,1-0.4,1-1v-0.1h1.9c1.9-0.2,3.3-1.8,3.3-3.7v-1.5
		C576.1,567.1,576,566.7,575.9,566.4L575.9,566.4z M524.8,507.9v-8.7h11.9v8.7H524.8z"/>
	<g id="Group_1745" transform="translate(500.058 490.896)">
		<rect id="Rectangle_220" x="38.4" y="6.4" class="st1" width="4.6" height="8.7"/>
		<path id="Path_1232" class="st1" d="M36.8,3.5h3.8L36.7,0H22l-3.9,3.5H36.8z"/>
		<rect id="Rectangle_221" x="15.7" y="6.4" class="st1" width="4.6" height="8.7"/>
		<path id="Path_1233" class="st1" d="M44.5,18H4.9L0,74.8h58.6L53.7,18L44.5,18z"/>
	</g>
	<path id="Path_1234" class="st2" d="M555.2,506h-9.1v-10.1c0-0.1,0-0.2,0-0.3c0,0,0,0,0,0c0-0.1-0.1-0.2-0.1-0.3c0,0,0-0.1,0-0.1
		c-0.1-0.1-0.2-0.2-0.2-0.3c0,0,0,0,0,0l-7.2-6.4c-0.3-0.3-0.7-0.4-1.1-0.4h-16c-0.4,0-0.8,0.1-1,0.4l-7.2,6.4l0,0
		c-0.1,0.1-0.2,0.2-0.2,0.3c0,0,0,0.1,0,0.1c-0.1,0.1-0.1,0.2-0.1,0.3c0,0,0,0,0,0c0,0.1,0,0.2,0,0.3V506h-9.2
		c-0.8,0-1.4,0.6-1.5,1.3l-5.1,59.7c0,0.4,0.1,0.8,0.4,1.1c0.3,0.3,0.7,0.5,1.1,0.5h61.9c0.4,0,0.8-0.2,1.1-0.5
		c0.3-0.3,0.4-0.7,0.4-1.1l-5.1-59.7C556.6,506.5,556,505.9,555.2,506z M522,490.9h14.8l3.9,3.5h-22.6L522,490.9z M543,497.3v8.7
		h-4.6v-8.7H543z M535.4,497.3v8.7h-11.9v-8.7H535.4z M515.8,497.3h4.6v8.7h-4.6V497.3z M500.1,565.7l4.9-56.8h48.9l4.9,56.8H500.1z
		"/>
	<g id="Group_1746" transform="translate(514.949 523.663)">
		<path id="Path_1235" class="st3" d="M14.4,2.7c0.1,0,0.1,0,0.2,0s0.1,0,0.2,0h0.2c0.1,0,0.1,0,0.2,0s0.1,0,0.2,0s0.1,0,0.2,0
			s0.1,0,0.2,0s0.1,0,0.2,0s0.1,0,0.2,0s0.1,0,0.2,0s0.1,0.1,0.2,0.1s0.1,0,0.2,0s0.1,0,0.2,0s0.1,0,0.2,0s0.1,0,0.2,0.1
			s0.1,0,0.2,0s0.1,0.1,0.2,0.1s0.1,0,0.2,0.1s0.1,0,0.2,0s0.1,0,0.2,0s0.1,0,0.2,0.1s0.1,0.1,0.2,0.1s0.1,0,0.2,0s0.1,0,0.2,0
			s0.1,0,0.2,0.1s0.1,0,0.2,0.1s0.1,0.1,0.1,0.1s0.1,0.1,0.2,0.1s0.1,0,0.2,0.1s0.1,0.1,0.1,0.1c0.1,0,0.1,0,0.2,0.1s0.1,0,0.2,0
			s0.1,0.1,0.1,0.1s0.1,0,0.2,0.1S20,4.3,20,4.4s0.1,0,0.2,0.1s0.1,0.1,0.1,0.1s0.1,0.1,0.1,0.1s0.1,0.1,0.1,0.1s0.1,0.1,0.1,0.1
			s0.1,0,0.2,0.1S21,5,21,5s0.1,0.1,0.1,0.1s0.1,0,0.1,0.1s0.1,0.1,0.1,0.1s0.1,0.1,0.1,0.1s0.1,0.1,0.1,0.1s0.1,0.1,0.1,0.1
			s0.1,0.1,0.1,0.1S22,5.9,22,5.9S22.1,6,22.2,6s0,0.1,0.1,0.2s0.1,0.1,0.1,0.1s0.1,0.1,0.1,0.1s0.1,0,0.2,0.1s0.1,0.1,0.1,0.1
			s0,0.1,0.1,0.1s0.1,0.1,0.1,0.1S23,7.1,23,7.1s0.1,0.1,0.1,0.1s0.1,0.1,0.1,0.1s0.1,0.1,0.1,0.1s0,0.1,0.1,0.2s0.1,0.1,0.1,0.1
			s0,0.1,0,0.2s0.1,0.1,0.1,0.1s0.1,0.1,0.1,0.1s0.1,0.1,0.1,0.1s0,0.1,0,0.2S24,8.6,24,8.7s0,0.1,0.1,0.2s0,0.1,0.1,0.2
			c0.1,0,0.1,0,0.2,0c0.1,0,0.1,0,0.2,0c0,0,0.1-0.1,0.2-0.1h0.2c0.1,0,0.1,0,0.2,0s0.1,0,0.2,0s0.1,0,0.2,0s0.1,0,0.2,0
			s0.1,0,0.2,0s0.1,0,0.2,0s0.1,0,0.2,0s0.1,0,0.2,0s0.1,0,0.2,0s0.1,0,0.2,0S26.6,9,26.6,9s0.1,0,0.2,0s0.1,0,0.2,0
			C27,9,27,9,27.1,9c0-0.1,0-0.1,0-0.2s0-0.1-0.1-0.2s-0.1-0.1-0.1-0.1s0-0.1-0.1-0.2s0-0.1-0.1-0.2s0-0.1-0.1-0.2
			c0-0.1,0-0.1,0-0.2s-0.1-0.1-0.1-0.1s-0.1-0.1-0.1-0.1s0-0.1-0.1-0.2s-0.1-0.1-0.1-0.1s-0.1-0.1-0.1-0.1s0-0.1-0.1-0.2
			s0-0.1-0.1-0.2s-0.1-0.1-0.1-0.1S26,6.6,26,6.5s-0.1-0.1-0.1-0.1s0-0.1-0.1-0.2s-0.1-0.1-0.1-0.1S25.6,6,25.6,6s0-0.1-0.1-0.1
			s-0.1-0.1-0.1-0.1c0,0-0.1-0.1-0.1-0.1c0,0-0.1-0.1-0.1-0.1s-0.1-0.1-0.1-0.1S25,5.2,25,5.1s0-0.1-0.1-0.2s-0.1-0.1-0.1-0.1
			s-0.1-0.1-0.1-0.1s-0.1-0.1-0.1-0.1s-0.1-0.1-0.1-0.1s-0.1-0.1-0.1-0.1s-0.1-0.1-0.1-0.1s-0.1-0.1-0.1-0.1S24,4,24,4
			c0,0-0.1-0.1-0.1-0.1s0-0.1-0.1-0.1s-0.1-0.1-0.1-0.1s-0.1,0-0.2-0.1s-0.1-0.1-0.1-0.1s-0.1-0.1-0.1-0.1s-0.1-0.1-0.1-0.1
			S23,3.1,23,3.1S22.9,3,22.9,3s-0.1-0.1-0.1-0.1s-0.1-0.1-0.1-0.1s-0.1-0.1-0.1-0.1s-0.1,0-0.2-0.1s-0.1-0.1-0.1-0.1
			s-0.1-0.1-0.1-0.1s-0.1,0-0.2-0.1s-0.1-0.1-0.1-0.1s-0.1-0.1-0.1-0.1S21.5,2,21.5,2s-0.1-0.1-0.1-0.1s-0.1,0-0.2-0.1
			s-0.1-0.1-0.1-0.1s-0.1,0-0.2-0.1s-0.1-0.1-0.1-0.1s-0.1,0-0.2,0s-0.1-0.1-0.1-0.1s-0.1-0.1-0.1-0.1s-0.1,0-0.2,0S20,1.2,20,1.2
			s-0.1-0.1-0.1-0.1s-0.1,0-0.2-0.1S19.6,1,19.5,1c-0.1,0-0.1,0-0.2,0s-0.1,0-0.2-0.1s-0.1-0.1-0.1-0.1s-0.1,0-0.2-0.1
			s-0.1,0-0.2-0.1s-0.1,0-0.2,0s-0.1-0.1-0.1-0.1s-0.1,0-0.2-0.1s-0.1,0-0.2,0c-0.1,0-0.1,0-0.2,0s-0.1-0.1-0.2-0.1s-0.1,0-0.2,0
			s-0.1,0-0.2,0s-0.1-0.1-0.2-0.1c-0.1,0-0.1,0-0.2,0c-0.1,0-0.1,0-0.2,0s-0.1,0-0.2,0s-0.1-0.1-0.2-0.1s-0.1,0-0.2,0
			s-0.1-0.1-0.2-0.1s-0.1,0-0.2,0s-0.1,0-0.2,0s-0.1,0-0.2,0s-0.1,0-0.2,0S15.5,0,15.4,0s-0.1,0-0.2,0c-0.1,0-0.1,0-0.2,0
			C15,0,15,0,14.9,0s-0.1,0-0.2,0s-0.1,0-0.2,0s-0.1,0-0.2,0s-0.1,0-0.2,0s-0.1,0-0.2,0S14,0,13.9,0s-0.1,0-0.2,0s-0.1,0-0.2,0
			s-0.1,0-0.2,0s-0.1,0-0.2,0s-0.1,0-0.2,0s-0.1,0-0.2,0s-0.1,0-0.2,0s-0.1,0-0.2,0s-0.1,0-0.2,0s-0.1,0-0.2,0s-0.1,0-0.2,0
			s-0.1,0-0.2,0s-0.1,0-0.2,0s-0.1,0-0.2,0s-0.1,0-0.2,0.1s-0.1,0-0.2,0s-0.1,0.1-0.2,0.1s-0.1,0-0.2,0s-0.1,0.1-0.2,0.1
			s-0.1,0-0.2,0.1s-0.1,0-0.2,0s-0.1,0.1-0.2,0.1s-0.1,0-0.2,0s-0.1,0-0.2,0.1S9.8,0.8,9.8,0.8s-0.1,0-0.2,0S9.5,0.9,9.4,1
			S9.3,1,9.3,1s-0.1,0-0.2,0S9,1.1,9,1.1S8.9,1.2,8.8,1.2s-0.1,0-0.2,0s-0.1,0-0.2,0.1S8.4,1.4,8.4,1.4s-0.1,0-0.2,0.1
			S8.1,1.6,8.1,1.6S8,1.6,7.9,1.6S7.8,1.7,7.8,1.8S7.7,1.8,7.6,1.8s-0.1,0-0.2,0.1S7.4,2,7.3,2S7.2,2,7.2,2.1S7.1,2.1,7,2.2
			S6.9,2.2,6.9,2.3S6.8,2.3,6.8,2.4S6.7,2.5,6.6,2.5S6.5,2.6,6.5,2.6S6.4,2.7,6.4,2.7s-0.1,0-0.2,0.1S6.1,2.8,6.1,2.9S6,3,6,3
			S5.8,3,5.8,3.1S5.7,3.2,5.7,3.2S5.6,3.3,5.6,3.3S5.5,3.4,5.4,3.4S5.4,3.5,5.3,3.5S5.2,3.6,5.2,3.6S5.1,3.7,5,3.8S5,3.8,4.9,3.9
			S4.9,4,4.8,4c0,0-0.1,0.1-0.1,0.1S4.6,4.2,4.6,4.3S4.5,4.3,4.5,4.4S4.4,4.4,4.3,4.5S4.3,4.6,4.3,4.6S4.2,4.7,4.1,4.7
			S4.1,4.8,4,4.9S4,5,3.9,5S3.9,5.1,3.8,5.2S3.7,5.2,3.7,5.3S3.6,5.4,3.6,5.4s0,0.1-0.1,0.2S3.4,5.6,3.4,5.7s0,0.1-0.1,0.2
			S3.2,5.9,3.2,6s0,0.1-0.1,0.2S3.1,6.2,3.1,6.3S3,6.3,2.9,6.4s0,0.1-0.1,0.2s0,0.1-0.1,0.2L2.7,6.8c0,0-0.1,0.1-0.1,0.1
			S2.6,7.1,2.5,7.1S2.5,7.2,2.4,7.3S2.4,7.4,2.3,7.4s0,0.1,0,0.2S2.2,7.7,2.2,7.7s0,0.1-0.1,0.2s0,0.1,0,0.2c0,0-0.1,0.1-0.1,0.1
			c0,0,0,0.1,0,0.2S1.9,8.4,1.9,8.5S1.8,8.6,1.8,8.7s0,0.1,0,0.2s0,0.1-0.1,0.2c0.1,0,0.1,0,0.2,0C1.9,9,2,9,2,9h0.2
			c0.1,0,0.1,0,0.2,0h0.2c0.1,0,0.1,0,0.2,0s0.1,0,0.2,0S2.9,9,3,9s0.1,0,0.2,0s0.1,0,0.2,0s0.1,0,0.2,0s0.1,0,0.2,0s0.1,0,0.2,0
			S3.9,9,4,9s0.1,0,0.2,0s0.1,0,0.2,0c0.1,0,0.1,0,0.2,0c0.1,0,0.1,0,0.2,0c0-0.1,0.1-0.1,0.1-0.2s0-0.1,0.1-0.2s0-0.1,0-0.2
			s0-0.1,0.1-0.2S5,8.3,5.1,8.2s0.1-0.1,0.1-0.1s0-0.1,0.1-0.2s0-0.1,0.1-0.1s0.1-0.1,0.1-0.1s0.1-0.1,0.1-0.1s0-0.1,0.1-0.2
			s0.1-0.1,0.1-0.1s0.1-0.1,0.1-0.1S5.9,7,5.9,7S6,6.9,6,6.8s0.1-0.1,0.1-0.1s0.1-0.1,0.1-0.1s0.1-0.1,0.1-0.1s0.1-0.1,0.1-0.1
			s0.1-0.1,0.1-0.1s0.1-0.1,0.1-0.1S6.8,6,6.8,5.9s0.1-0.1,0.1-0.1S7,5.8,7.1,5.7s0.1-0.1,0.1-0.1s0.1-0.1,0.1-0.1s0.1-0.1,0.1-0.1
			s0.1-0.1,0.1-0.1s0.1-0.1,0.1-0.1S7.8,5.1,7.8,5S7.9,5,7.9,4.9S8,4.8,8.1,4.8s0.1,0,0.2-0.1s0.1-0.1,0.1-0.1s0.1-0.1,0.1-0.1
			s0.1,0,0.2-0.1s0.1-0.1,0.1-0.1s0.1,0,0.2-0.1S9,4.2,9.1,4.2s0.1,0,0.2-0.1s0.1,0,0.2,0S9.5,4,9.5,3.9s0.1,0,0.2-0.1
			s0.1,0,0.2-0.1S9.9,3.7,10,3.7s0.1-0.1,0.2-0.1s0.1,0,0.2,0s0.1-0.1,0.1-0.1s0.1,0,0.2,0s0.1-0.1,0.2-0.1s0.1,0,0.2,0
			s0.1,0,0.2-0.1s0.1-0.1,0.2-0.1s0.1-0.1,0.2-0.1s0.1,0,0.2,0s0.1,0,0.2-0.1s0.1,0,0.2,0s0.1,0,0.2,0s0.1,0,0.2,0s0.1,0,0.2,0
			s0.1-0.1,0.2-0.1s0.1,0,0.2,0s0.1-0.1,0.2-0.1s0.1,0,0.2,0s0.1-0.1,0.2-0.1s0.1,0.1,0.2,0s0.1,0,0.2,0s0.1,0,0.2,0s0.1,0,0.2,0
			s0.1,0,0.2,0s0.1,0,0.2,0S14.4,2.7,14.4,2.7 M24.1,18c0,0,0,0.1-0.1,0.2s0,0.1-0.1,0.2s0,0.1-0.1,0.2s-0.1,0.1-0.1,0.1
			s-0.1,0.1-0.1,0.1s0,0.1-0.1,0.2S23.6,19,23.6,19s0,0.1-0.1,0.2s-0.1,0.1-0.1,0.1s-0.1,0.1-0.1,0.1s-0.1,0.1-0.1,0.1
			s0,0.1-0.1,0.2s-0.1,0.1-0.1,0.1S23,20,22.9,20s-0.1,0.1-0.1,0.1s-0.1,0.1-0.1,0.1s0,0.1-0.1,0.1s-0.1,0.1-0.1,0.1
			s-0.1,0.1-0.1,0.1s-0.1,0.1-0.1,0.1s-0.1,0.1-0.1,0.1S22,21,22,21s-0.1,0.1-0.1,0.1s-0.1,0.1-0.1,0.1s-0.1,0.1-0.1,0.1
			s-0.1,0.1-0.1,0.1s-0.1,0.1-0.1,0.1s-0.1,0.1-0.1,0.1s-0.1,0.1-0.1,0.1s-0.1,0-0.2,0.1S20.9,22,20.9,22s-0.1,0-0.2,0.1
			s-0.1,0.1-0.1,0.1s-0.1,0-0.2,0.1s-0.1,0.1-0.1,0.1s-0.1,0.1-0.1,0.1s-0.1,0-0.2,0.1s-0.1,0.1-0.1,0.1s-0.1,0-0.2,0.1
			s-0.1,0.1-0.1,0.1s-0.1,0-0.2,0.1S19.4,23,19.3,23s-0.1,0-0.2,0.1L19,23.2c0,0-0.1,0.1-0.1,0.1s-0.1,0-0.2,0.1s-0.1,0-0.2,0.1
			s-0.1,0-0.2,0s-0.1,0.1-0.2,0.1s-0.1,0-0.2,0s-0.1,0.1-0.2,0.1s-0.1,0-0.2,0s-0.1,0-0.2,0s-0.1,0.1-0.2,0.1s-0.1,0-0.2,0.1
			s-0.1,0-0.2,0s-0.1,0-0.2,0.1s-0.1,0-0.2,0.1s-0.1,0-0.2,0s-0.1,0-0.2,0s-0.1,0-0.2,0s-0.1,0-0.2,0s-0.1,0-0.2,0s-0.1,0.1-0.2,0.1
			s-0.1,0-0.2,0s-0.1,0.1-0.2,0.1s-0.1,0-0.2,0c-0.1,0-0.1,0-0.2,0c-0.1,0-0.1,0-0.2,0s-0.1,0-0.2,0s-0.1,0-0.2,0s-0.1,0-0.2,0
			s-0.1,0-0.2,0s-0.1,0-0.2,0s-0.1,0-0.2,0s-0.1,0-0.2,0s-0.1,0-0.2,0s-0.1,0-0.2,0s-0.1,0-0.2,0s-0.1,0-0.2,0s-0.1,0-0.2,0l-0.2,0
			c-0.1,0-0.1,0-0.2-0.1s-0.1,0-0.2,0S12.3,24,12.2,24s-0.1,0-0.2,0s-0.1,0-0.2-0.1s-0.1,0-0.2-0.1s-0.1,0-0.2,0s-0.1-0.1-0.2-0.1
			s-0.1,0-0.2-0.1s-0.1,0-0.2,0s-0.1,0-0.2,0s-0.1-0.1-0.1-0.1s-0.1,0-0.2,0s-0.1-0.1-0.1-0.1s-0.1,0-0.2-0.1s-0.1,0-0.2-0.1
			c-0.1,0-0.1,0-0.2-0.1c-0.1,0-0.1,0-0.2-0.1s-0.1,0-0.2-0.1S9.6,23,9.5,23s-0.1,0-0.2-0.1s-0.1-0.1-0.1-0.1s-0.1-0.1-0.1-0.1
			s-0.1,0-0.2-0.1s-0.1-0.1-0.1-0.1s-0.1,0-0.1-0.1s-0.1-0.1-0.1-0.1s-0.1-0.1-0.1-0.1s-0.1,0-0.2-0.1s-0.1-0.1-0.1-0.1
			s-0.1,0-0.2-0.1S7.9,22,7.8,21.9s-0.1-0.1-0.1-0.1s-0.1-0.1-0.1-0.1s-0.1-0.1-0.1-0.1s-0.1-0.1-0.1-0.1s-0.1-0.1-0.1-0.1
			s-0.1,0-0.2-0.1s-0.1-0.1-0.1-0.1S6.8,21.1,6.8,21S6.7,21,6.7,20.9s-0.1-0.1-0.1-0.1s-0.1-0.1-0.1-0.1s-0.1-0.1-0.1-0.1
			s0-0.1-0.1-0.2s-0.1-0.1-0.1-0.1S6.1,20.2,6,20.1S5.9,20.1,5.9,20s-0.1-0.1-0.1-0.1s-0.1-0.1-0.1-0.1s-0.1-0.1-0.1-0.1
			s0-0.1-0.1-0.2s-0.1-0.1-0.1-0.1s0-0.1-0.1-0.2S5.3,19.1,5.2,19s-0.1-0.1-0.1-0.1s0-0.1-0.1-0.2S5,18.6,5,18.6s-0.1-0.1-0.1-0.1
			s0-0.1-0.1-0.2s-0.1-0.1-0.1-0.1s0-0.1,0-0.2c-0.1,0-0.1,0-0.2,0c-0.1,0-0.1,0-0.2,0s-0.1,0-0.2,0S4.1,18,4,18s-0.1,0-0.2,0
			S3.8,18,3.7,18s-0.1,0-0.2,0s-0.1,0-0.2,0s-0.1,0-0.2,0H3c-0.1,0-0.1,0-0.2,0s-0.1,0-0.2,0S2.6,18,2.5,18s-0.1,0-0.2,0
			c0,0-0.1,0-0.2,0S2.1,18,2,18C2,18,2,18,1.9,18s-0.1,0-0.2,0c0,0.1,0.1,0.1,0.1,0.2s0,0.1,0.1,0.2s0,0.1,0,0.2s0.1,0.1,0.1,0.1
			S2,18.7,2,18.8s0,0.1,0,0.2s0.1,0.1,0.1,0.1s0,0.1,0,0.2s0.1,0.1,0.1,0.1c0,0.1,0,0.1,0.1,0.2c0,0.1,0,0.1,0.1,0.2s0,0.1,0,0.2
			s0.1,0.1,0.1,0.1s0,0.1,0.1,0.2s0.1,0.1,0.1,0.1s0,0.1,0.1,0.2s0.1,0.1,0.1,0.1s0,0.1,0.1,0.2s0,0.1,0.1,0.2s0.1,0.1,0.1,0.1
			s0,0.1,0.1,0.2s0.1,0.1,0.1,0.1s0.1,0.1,0.1,0.1s0.1,0.1,0.1,0.1s0.1,0.1,0.1,0.1s0,0.1,0.1,0.2s0.1,0.1,0.1,0.1S4,22,4,22.1
			s0.1,0.1,0.1,0.1s0,0.1,0.1,0.2s0.1,0.1,0.1,0.1s0.1,0.1,0.1,0.1s0.1,0.1,0.1,0.1s0.1,0.1,0.1,0.1s0,0.1,0.1,0.2s0.1,0,0.2,0.1
			s0.1,0.1,0.1,0.1s0.1,0.1,0.1,0.1s0.1,0,0.2,0.1s0.1,0.1,0.1,0.1s0.1,0.1,0.1,0.1s0.1,0,0.2,0.1s0.1,0.1,0.1,0.1S5.9,24,5.9,24
			s0.1,0,0.2,0.1s0.1,0.1,0.1,0.1s0.1,0.1,0.1,0.1s0.1,0.1,0.1,0.1s0.1,0.1,0.1,0.1s0.1,0.1,0.1,0.1s0.1,0.1,0.1,0.1
			s0.1,0.1,0.1,0.1s0.1,0.1,0.1,0.1s0.1,0,0.2,0.1s0.1,0.1,0.1,0.1s0.1,0,0.2,0.1s0.1,0.1,0.1,0.1s0.1,0,0.2,0.1s0.1,0.1,0.1,0.1
			s0.1,0.1,0.1,0.1s0.1,0,0.2,0.1s0.1,0,0.2,0s0.1,0.1,0.1,0.1s0.1,0,0.2,0s0.1,0,0.2,0.1s0.1,0.1,0.1,0.1s0.1,0,0.2,0.1
			s0.1,0.1,0.2,0.1s0.1,0,0.2,0s0.1,0.1,0.1,0.1s0.1,0,0.2,0.1s0.1,0,0.2,0s0.1,0,0.2,0.1s0.1,0,0.2,0s0.1,0.1,0.2,0.1s0.1,0,0.2,0
			s0.1,0,0.2,0.1s0.1,0,0.2,0s0.1,0,0.2,0.1s0.1,0,0.2,0s0.1,0,0.2,0s0.1,0,0.2,0s0.1,0,0.2,0s0.1,0,0.2,0s0.1,0.1,0.2,0.1
			s0.1,0,0.2,0s0.1,0,0.2,0.1s0.1,0,0.2,0s0.1,0,0.2,0s0.1,0,0.2,0s0.1,0,0.2,0s0.1,0,0.2,0s0.1,0,0.2,0s0.1,0,0.2,0s0.1,0,0.2,0
			s0.1,0,0.2,0h0.2h0.2h0.2c0.1,0,0.1,0,0.2,0s0.1,0,0.2,0s0.1,0,0.2,0s0.1,0,0.2,0s0.1-0.1,0.2-0.1s0.1,0,0.2,0s0.1,0,0.2,0
			s0.1-0.1,0.2-0.1s0.1,0,0.2,0s0.1,0,0.2,0s0.1,0,0.2,0s0.1,0,0.2,0s0.1,0,0.2,0s0.1-0.1,0.2-0.1s0.1,0,0.2,0s0.1,0,0.2,0
			s0.1,0,0.2-0.1s0.1,0,0.2,0s0.1,0,0.2,0s0.1,0,0.2,0s0.1,0,0.2,0s0.1,0,0.2-0.1s0.1-0.1,0.2-0.1s0.1,0,0.2,0s0.1-0.1,0.1-0.1
			s0.1,0,0.2-0.1s0.1,0,0.2,0s0.1-0.1,0.1-0.1s0.1,0,0.2,0s0.1-0.1,0.1-0.1s0.1,0,0.2-0.1s0.1-0.1,0.1-0.1s0.1,0,0.2,0
			s0.1-0.1,0.1-0.1s0.1,0,0.2,0s0.1-0.1,0.1-0.1s0.1,0,0.2-0.1s0.1-0.1,0.1-0.1s0.1-0.1,0.1-0.1s0.1,0,0.2,0s0.1-0.1,0.1-0.1
			s0.1-0.1,0.1-0.1s0.1-0.1,0.1-0.1s0.1,0,0.2,0s0.1-0.1,0.1-0.1l0.1-0.1c0,0,0.1-0.1,0.1-0.1s0.1-0.1,0.1-0.1s0.1,0,0.2-0.1
			s0.1-0.1,0.1-0.1s0.1-0.1,0.1-0.1s0.1-0.1,0.1-0.1s0.1-0.1,0.1-0.1s0.1-0.1,0.1-0.1s0.1-0.1,0.1-0.1s0.1-0.1,0.1-0.1
			s0.1-0.1,0.1-0.1s0.1-0.1,0.1-0.1s0.1-0.1,0.1-0.1s0.1-0.1,0.1-0.1l0.1-0.1c0,0,0.1-0.1,0.1-0.1s0.1-0.1,0.1-0.1s0.1-0.1,0.1-0.1
			s0.1-0.1,0.1-0.1s0.1-0.1,0.1-0.1s0.1-0.1,0.1-0.1s0.1-0.1,0.1-0.1s0-0.1,0.1-0.1s0.1-0.1,0.1-0.1s0-0.1,0.1-0.2s0.1-0.1,0.1-0.1
			s0.1-0.1,0.1-0.1s0-0.1,0.1-0.2s0.1-0.1,0.1-0.1s0.1-0.1,0.1-0.1s0-0.1,0.1-0.2s0.1-0.1,0.1-0.1s0.1-0.1,0.1-0.1s0-0.1,0.1-0.1
			s0.1-0.1,0.1-0.1s0.1-0.1,0.1-0.1s0.1-0.1,0.1-0.1s0-0.1,0.1-0.2s0-0.1,0.1-0.2s0.1-0.1,0.1-0.1s0-0.1,0.1-0.2s0.1-0.1,0.1-0.1
			s0-0.1,0.1-0.2s0-0.1,0.1-0.2s0-0.1,0-0.2s0.1-0.1,0.1-0.1s0-0.1,0.1-0.2s0-0.1,0-0.2s0.1-0.1,0.1-0.1s0-0.1,0-0.2
			s0.1-0.1,0.1-0.1c0,0-0.1,0-0.2,0s-0.1,0-0.2,0s-0.1,0-0.2,0h-0.2c0,0-0.1,0-0.2,0s-0.1,0-0.2,0S26,18,26,18s-0.1,0-0.2,0
			S25.7,18,25.6,18s-0.1,0-0.2,0s-0.1,0-0.2,0h-0.2H25h-0.2c-0.1,0-0.1,0-0.2,0s-0.1,0-0.2,0s-0.1,0-0.2,0
			C24.2,18,24.2,17.9,24.1,18"/>
		<path id="Path_1236" class="st4" d="M7.2,15.6L7.2,15.6c-0.2-0.4-0.5-0.7-0.9-0.9c-0.6-0.4-1.3-0.7-1.9-1c0.5-0.4,0.9-0.7,1.1-0.9
			c0.3-0.3,0.6-0.5,1-0.7c0.1,0,0.2-0.1,0.3-0.2C7,11.6,6.7,11.2,6.4,11c-0.3-0.2-1-0.8-1-0.8c-0.1-0.1-0.1-0.1-0.2-0.1l0,0
			c-0.2,0-0.3,0.2-0.5,0.3c-0.1,0-0.2,0.1-0.3,0.1c-0.3,0.1-2.2,0.4-2.7,0.4c-0.1,0-0.2,0-0.3,0C1.3,11,1.1,11,1,10.8
			c0,0-0.1-0.1-0.2-0.1c-0.1,0-0.1,0-0.1,0.1c-0.1,0.1,0,0.2,0,0.3c0.2,0.4,0.5,0.9,0.8,1.3c0,0,0.1,0.1,0.1,0.1
			c0.1,0.1,0.3,0.2,0.4,0.2c0.2,0,0.4-0.1,0.6-0.2c0.5-0.2,1.7-0.8,1.7-0.8c-1,1.1-3.5,4.1-4.2,4.9c-0.1,0.1-0.1,0.1-0.1,0.2
			c0,0,0,0.1,0,0.1c0,0,0,0.1,0,0.1c0,0,0.1,0,0.1,0c0,0,0.1-0.1,0.1-0.1c0.1-0.1,0.2-0.2,0.3-0.2c0.4-0.3,1.9-1.5,2.6-2
			c0.2-0.2,0.4-0.3,0.7-0.5c0.4,0.4,0.8,0.9,1,1.5c0.1,0.3,0.3,0.6,0.5,0.8c0.2,0.3,0.5,0.4,0.8,0.4c0.1,0,0.3,0,0.4-0.1
			c0.4-0.2,0.7-0.6,0.7-1C7.2,15.7,7.2,15.7,7.2,15.6"/>
		<path id="Path_1237" class="st4" d="M10.6,16.9c-0.1,0-0.3,0-0.4-0.1c-0.1,0-0.3-0.1-0.4-0.2c-0.2-0.2-0.4-0.4-0.5-0.7
			c-0.1-0.3-0.1-0.6-0.3-0.8C9,15,8.8,14.9,8.7,14.8c-0.1-0.1-0.1-0.2-0.1-0.3c0,0,0,0,0,0c0,0,0.1,0,0.1,0c0.1,0,0.2,0.1,0.2,0.1
			c0,0,0.5,0.2,0.6,0.3c0.2,0.1,0.3,0.1,0.5,0.1c0.2,0,0.3-0.1,0.4-0.2c0,0,4.3-4.6,4.3-4.6c0,0,0.1,0,0.1,0c0.1,0,0.1,0.1,0.1,0.1
			c0,0,0,0,0,0c-0.6,1-2.1,4-3.3,5.9c-0.1,0.2-0.3,0.4-0.5,0.6C11,16.8,10.8,16.9,10.6,16.9"/>
		<path id="Path_1238" class="st4" d="M23,13.3c-0.1-0.1-0.1-0.2-0.2-0.3c0-0.1,0.1-0.2,0.2-0.1c0.1,0,0.2,0.1,0.3,0.2
			c0.2,0.1,0.4,0.1,0.7,0.1c0.3,0,0.7,0,1-0.1c0.2,0,0.6,0,1.1-0.1c0.4,0,0.7-0.1,1.1-0.1c0.1,0,0.2-0.1,0.2-0.1
			c0.1-0.1,0.2-0.1,0.3-0.1c0.2,0,0.4,0.1,0.5,0.2c0.3,0.2,0.5,0.5,0.7,0.8c0.1,0.1,0.1,0.2,0,0.4c-0.1,0.1-0.3,0.1-0.5,0
			c-0.2,0-0.4,0-0.6,0c-0.1,0-0.2,0-0.3,0c-1,0-1.9,0.1-2.9,0.2c-0.2,0-0.3,0-0.5,0c-0.1,0-0.3-0.1-0.4-0.2C23.6,14,23,13.4,23,13.3
			"/>
		<path id="Path_1239" class="st4" d="M22.5,11.6c0.1,0.1,0.2,0.3,0.3,0.4c0,0.1,0,0.2-0.1,0.2c-0.1,0.1-0.1,0.1-0.2,0.1
			c0,0-0.1,0.1-0.1,0.1c-0.1,0.1-0.1,0.2-0.2,0.4c-0.1,0.2-0.6,1.3-1,2c0.1,0.1,0.1,0.1,0.2,0.2c0.1,0.1,0.2,0.2,0.2,0.3
			c0.1,0.2,0.2,0.4-0.1,0.6C21.5,16,21.3,16,21.2,16L21,16c-0.2,0-0.4,0-0.6,0c-0.8,0-2.3,0.1-2.9,0.1c0,0.1,0,0.1-0.1,0.2
			c-0.1,0.2-0.4,0.3-0.6,0.1c-0.1,0-0.1-0.1-0.1-0.1c-0.1-0.1-0.1-0.2-0.1-0.3c0-0.1-0.3-2.5-0.5-3.5c0-0.2-0.1-0.4-0.1-0.6
			c-0.1-0.3-0.2-0.5-0.4-0.7c0,0-0.1,0-0.1-0.1c0-0.1,0.1-0.1,0.2-0.1c0.1-0.1,0.2-0.1,0.4-0.1c0.1,0,0.3,0,0.4,0l0,0
			c0.2,0,0.5,0,0.7,0.1c0.2,0.1,0.4,0.2,0.4,0.4c0.9-0.1,2.2-0.2,2.6-0.2c0.2,0,0.3-0.1,0.5-0.2c0.1-0.1,0.3-0.2,0.5-0.2
			c0.1,0,0.2,0,0.3,0.1C21.7,11,22.1,11.3,22.5,11.6 M17.5,14.6v0.3c0.5,0,1.8-0.1,2.3-0.1c0.3-0.8,0.5-1.7,0.4-2.6l0,0h0
			c-0.1,0-2.4,0.2-2.7,0.2c0,0,0,0,0,0C17.5,13,17.5,13.9,17.5,14.6"/>
		<path id="Path_1240" class="st5" d="M9,10.4c0,0,0-0.1,0-0.1c0-0.1,0.1-0.1,0.1-0.1c0,0,0,0,0,0c0.1,0,0.1,0,0.2,0.1
			c0.1,0.1,0.2,0.1,0.3,0.2c0.4,0.1,0.8-0.1,1.1,0s0.5,0.5,0.6,0.8c0,0.1,0.1,0.3,0.1,0.4c0,0.3-0.4,0.3-0.6,0.4
			c-0.4,0.1-0.7,0-1-0.3c-0.2-0.2-0.3-0.4-0.4-0.6C9.2,10.8,9.1,10.6,9,10.4C9,10.4,9,10.4,9,10.4"/>
		<path id="Path_1241" class="st4" d="M8.9,13.6c-0.2-0.1-0.3-0.2-0.4-0.4c-0.2-0.3-0.4-0.6-0.6-0.9c0-0.1-0.1-0.1-0.1-0.2
			c0,0,0-0.1,0.1-0.1c0.1,0,0.1,0,0.2,0.1c0.1,0.1,0.2,0.1,0.3,0.2c0.1,0,0.2,0.1,0.3,0.1c0.1,0,0.3,0,0.4,0c0,0,0.3,0,0.3,0
			c0.3,0,0.5,0.1,0.6,0.4c0.1,0.1,0.1,0.3,0.1,0.4c0,0.1,0,0.2,0,0.4c-0.1,0.2-0.3,0.3-0.5,0.3c-0.1,0-0.1,0-0.2,0
			C9.3,13.8,9.1,13.7,8.9,13.6"/>
	</g>
	<g id="Group_1750" transform="translate(540.436 539.087)">
		<circle id="Ellipse_105" class="st6" cx="17.5" cy="22.5" r="5.6"/>
		<g id="Group_1749" transform="translate(0)">
			<path id="Path_1242" class="st7" d="M0.9,6.5c-1.2,1.2-1.2,3.2,0,4.4l2.9,2.9c0.3,0.3,0.8,0.4,1.2,0.2l5.2-3
				c0.3-0.1,0.5-0.4,0.6-0.7l0.6-3.1c4-1.1,8.1-1.1,12.1-0.1l0.6,3.1c0.1,0.3,0.3,0.6,0.6,0.7l5.2,2.9c0.4,0.2,0.9,0.1,1.2-0.2l3-3
				c1.2-1.2,1.2-3.2,0-4.4c0,0,0,0,0,0C25.7-2.2,9.5-2.1,0.9,6.5L0.9,6.5z"/>
			<path id="Path_1243" class="st7" d="M34.3,27.9v-1.5c0-0.3-0.1-0.7-0.2-1l0,0c-0.1-0.1-0.1-0.3-0.2-0.4l-0.3-0.4h0l-5.1-7.8l0,0
				l-1.7-2.6c-0.3-0.5-0.8-0.8-1.4-1l-15.5,0c-0.6,0.1-1.1,0.5-1.5,1L1.2,24.8C1.1,24.9,1,25,1,25.1l0,0.1h0
				c-0.1,0.2-0.2,0.4-0.2,0.7v2c0,1.9,1.4,3.5,3.3,3.7h26.8C32.8,31.4,34.3,29.8,34.3,27.9z M17.5,28c-3.1,0-5.6-2.5-5.6-5.6
				c0-3.1,2.5-5.6,5.6-5.6c3.1,0,5.6,2.5,5.6,5.6c0,0,0,0,0,0C23.1,25.5,20.6,28,17.5,28z"/>
			<g id="Group_1747" transform="translate(11.241 10.95)">
				<path id="Rectangle_222" class="st7" d="M10.6,0h1c0.6,0,1,0.4,1,1v2.2c0,0.8-0.7,1.5-1.5,1.5l0,0c-0.8,0-1.5-0.7-1.5-1.5V1
					C9.6,0.4,10,0,10.6,0z"/>
				<path id="Rectangle_223" class="st7" d="M1,0h1c0.6,0,1,0.4,1,1v2.2C3,4,2.3,4.7,1.5,4.7l0,0C0.7,4.7,0,4,0,3.2V1
					C0,0.4,0.4,0,1,0z"/>
			</g>
			<g id="Group_1748" transform="translate(5.997 28.038)">
				<path id="Rectangle_224" class="st7" d="M21.6,0L21.6,0C22.4,0,23,0.7,23,1.5v2.2c0,0.6-0.4,1-1,1h-1c-0.6,0-1-0.4-1-1V1.5
					C20.1,0.7,20.7,0,21.6,0C21.6,0,21.6,0,21.6,0z"/>
				<path id="Rectangle_225" class="st7" d="M1.5,0L1.5,0C2.3,0,3,0.7,3,1.5v2.2c0,0.6-0.4,1-1,1H1c-0.6,0-1-0.4-1-1V1.5
					C0,0.7,0.7,0,1.5,0C1.5,0,1.5,0,1.5,0z"/>
			</g>
			<circle id="Ellipse_106" class="st7" cx="17.5" cy="22.4" r="3.8"/>
		</g>
	</g>
</g>
</svg>
